/* XPM */
static char *_4a9087c34b44543bc0f0abf396cdfe2UO0Kx19SlikaMrFI[] = {
/* columns rows colors chars-per-pixel */
"64 64 256 2 ",
"   c #140A07",
".  c #1B1408",
"X  c #0A0000",
"o  c #24160D",
"O  c #291D14",
"+  c #351C17",
"@  c #3A2918",
"#  c #332718",
"$  c #392C24",
"%  c #3D3224",
"&  c #362B2E",
"*  c #271C20",
"=  c #47331C",
"-  c #4F2B19",
";  c #423524",
":  c #483828",
">  c #583628",
",  c #463B32",
"<  c #563B35",
"1  c #4D2B28",
"2  c #63382B",
"3  c #663C32",
"4  c #642F1F",
"5  c #59442A",
"6  c #4D4336",
"7  c #524334",
"8  c #5C4A35",
"9  c #5C4D3E",
"0  c #574738",
"q  c #574A32",
"w  c #644B2C",
"e  c #66492B",
"r  c #634B33",
"t  c #684837",
"y  c #76493A",
"u  c #6C5334",
"i  c #64533C",
"p  c #69553A",
"a  c #75593A",
"s  c #71542C",
"d  c #78613C",
"f  c #564C42",
"g  c #5D5447",
"h  c #624D49",
"j  c #645443",
"k  c #6C5C44",
"l  c #6B5D4C",
"z  c #665947",
"x  c #745D44",
"c  c #7B5B43",
"v  c #785848",
"b  c #795147",
"n  c #6E614C",
"m  c #7C6345",
"M  c #73634C",
"N  c #7B644B",
"B  c #78674A",
"V  c #746453",
"C  c #7B6C53",
"Z  c #7E6D5B",
"A  c #786756",
"S  c #766A55",
"D  c #7B6F63",
"F  c #88673B",
"G  c #916F3F",
"H  c #8B533F",
"J  c #845C4C",
"K  c #8B5C4C",
"L  c #855745",
"P  c #875D53",
"I  c #8B6B45",
"U  c #82654B",
"Y  c #856A4C",
"T  c #8A6C4C",
"R  c #886548",
"E  c #916F4B",
"W  c #926748",
"Q  c #8C714C",
"!  c #897049",
"~  c #94734C",
"^  c #9A764C",
"/  c #9C7B4D",
"(  c #977546",
")  c #8B6455",
"_  c #836D53",
"`  c #8A6D52",
"'  c #886858",
"]  c #936455",
"[  c #936C5C",
"{  c #9C6C5C",
"}  c #986758",
"|  c #8C7455",
" . c #83735C",
".. c #897559",
"X. c #937452",
"o. c #9C7B54",
"O. c #94745B",
"+. c #947C5D",
"@. c #987856",
"#. c #A27858",
"$. c #A66E5F",
"%. c #996E64",
"&. c #897965",
"*. c #957363",
"=. c #9C7362",
"-. c #9C7965",
";. c #9D7C6A",
":. c #947B66",
">. c #8E7070",
",. c #A46F62",
"<. c #A37463",
"1. c #AC7C6C",
"2. c #A57968",
"3. c #B27C6E",
"4. c #9D8258",
"5. c #A38254",
"6. c #A3845A",
"7. c #AC8B5B",
"8. c #A88959",
"9. c #B28E5B",
"0. c #BB955D",
"q. c #B6945D",
"w. c #A4844C",
"e. c #8E836C",
"r. c #94846B",
"t. c #9B8C6D",
"y. c #978466",
"u. c #948573",
"i. c #9D8D73",
"p. c #998C78",
"a. c #9F9173",
"s. c #9D9279",
"d. c #96896F",
"f. c #AC8C62",
"g. c #A38C6C",
"h. c #A58768",
"j. c #B28B66",
"k. c #A3916D",
"l. c #AB9368",
"z. c #B39465",
"x. c #BD9A64",
"c. c #B49A6D",
"v. c #BC9B6C",
"b. c #B89667",
"n. c #AB8573",
"m. c #A38D72",
"M. c #A98B76",
"N. c #B28374",
"B. c #B58B7A",
"V. c #BC8B7B",
"C. c #BA8675",
"Z. c #A39474",
"A. c #A99575",
"S. c #A99977",
"D. c #A5957A",
"F. c #AB967B",
"G. c #A6997A",
"H. c #AB9C7C",
"J. c #A69976",
"K. c #B49B73",
"L. c #B19C7C",
"P. c #B7967A",
"I. c #AFA07F",
"U. c #B8A177",
"Y. c #C39E66",
"T. c #C48C7A",
"R. c #C39979",
"E. c #C8A36B",
"W. c #C4A573",
"Q. c #CCA976",
"!. c #D3AD76",
"~. c #D9B478",
"^. c #D2AD6F",
"/. c #E5BB7C",
"(. c #C0985D",
"). c #AC9D81",
"_. c #A99886",
"`. c #B29E82",
"'. c #BA9784",
"]. c #BC958A",
"[. c #AEA182",
"{. c #ADA38C",
"}. c #B2A384",
"|. c #B5A58A",
" X c #B6A98A",
".X c #BAAB8C",
"XX c #BAA686",
"oX c #BCAD92",
"OX c #B7A793",
"+X c #BEB093",
"@X c #BDB29B",
"#X c #BEB18F",
"$X c #998084",
"%X c #C89787",
"&X c #D69C8B",
"*X c #CE9D91",
"=X c #C7A48B",
"-X c #D3A18D",
";X c #DBA18E",
":X c #D7B784",
">X c #CDA493",
",X c #C9AA94",
"<X c #D4A393",
"1X c #DBA492",
"2X c #DCA995",
"3X c #DCAD9B",
"4X c #D5AA9A",
"5X c #C3B599",
"6X c #D9B39B",
"7X c #E3BE84",
"8X c #E3AB9B",
"9X c #E3A895",
"0X c #E7B19D",
"qX c #E2A48F",
"wX c #CAB8A4",
"eX c #DBB9A5",
"rX c #D4AEA3",
"tX c #ECB5A4",
"yX c #E8B9A7",
"uX c #F2BEAB",
"iX c #F0B8A5",
"pX c #F5B9AD",
"aX c #E6C48B",
"sX c #E9C28F",
"dX c #D5C7B1",
"fX c #EAC3AA",
"gX c #F4C3AD",
"hX c #F6C6AF",
"jX c #EACAB8",
"kX c #F5C5B3",
"lX c #FCCCBA",
"zX c #FAC9B5",
"xX c #FED4BD",
"cX c #F9D4BB",
"vX c #ECDBBF",
"bX c #DFC08A",
"nX c #FED4C2",
"mX c #FEDAC5",
"MX c #FEDDCA",
"NX c #F7D8C7",
"BX c #EED7CA",
"VX c #FEE4CD",
"CX c #FAE7CD",
"ZX c #FFE5D3",
"AX c #FEECD3",
"SX c #FEECD9",
"DX c #F4E2D6",
"FX c #FEF2DC",
"GX c #FBF5DA",
"HX c #EBE7D5",
"JX c #FEFCE3",
"KX c #FEFEEA",
"LX c #FBF6E1",
"PX c #FFFFFC",
"IX c #FFFFF4",
"UX c #DAD3C1",
/* pixels */
"a.i.t.t.I.n z D 6 G.Z.D. .B |.j l 0 n L.g.Z.g.m.Z.y.&.C n L.g.h.g.f.l.U.S.c.c.c.c.v.Q.4.8.bXv.v.~.~.aXaXbX^.Q.w.x.7X/././.Y.G 4.",
"G.G.Z.Z.I.Z # % n [.k.a.D.l i.&.= 0 F.A.t.t.i.Z.Z.S.n C k G.l.k.k.4.k.l.K.U.c.c.c.v.U.w.f.:XW.W.^.W.^.^.aXaXq.( w.7X/.~./.(.G o.",
"H.D.H.D.}.C ; S S a.d.d.).k Z |...d.F.t.t.t.m.g.Z.}.Y C B +.S.k.k.g.g.g.l.c.c.S.K.v.v.8.4.8.W.E.E.Q.E.0.~.~./ x.w.E.^.~./.(.G ^ ",
").H.H.D.{.S e.{.n a.s.{.p.8 u.H.[.H.k.t.Z.Z.t.Z.Z.S.y...n C U.f.k.l.g.f.k.z.K.c.c.v.U.4.4./ v.W.v.!.E.W.w.q.:X:X9.q.E.^./.E.F E ",
"[.H.G.}.D.n s.s.k D._.C 5 C ).a.Z.i.Z.J.J.k.k.k.Z.Z.Z.C B V U.k.k.k.g.h.k.l.l.z.z.c.U.4.8.8.z.Q.!.U./ Q.w.x.!.aX9.9.^.^./.E.G F ",
"u.|.{. Xn &.#Xd.j S k i  .).a.D.D.m.m.k.k.Z.Z.Z.Z.Z.}.C M B S.k.l.7.g._.).'.}.7.c.z.v.8.4.f.f.Q.W.v.F W.x.7.9.!.Y.9.E.E.~.E.G F ",
"6 s.@X .Z  XoXD C i.r.{.|.Z.Z.A.D.D.Z.k.a.Z.Z.S.Z.Z.U.C C B :.U.l.c.L.,X$X$XOX'.l.l.z.l.X.4.4.:X7.7.f.Q./ / 7.8.!.x.^.(.^.E.( I ",
"f u.s.V  X{.{.n d.+X).H.F.F.A.A.Z.D.J.J.G.S.S.S.F.S.[.y...C _ ,X`.G. .< 6 & A |.U.l.7.c.4.8.8.Q.f.z.j.b.v.z.b.( !.Y./.Y.E.E.E F ",
"z D e._.@X+Xn n .XG.F.G.H.).G.F.G.S.H.H.S.S.S.S.S.J.J.I...C C r.M 7 # O 6 % ; n k.=XK.v.4.4.v.v.c.W./ z.:X( j.j.v.b.sX~.^.E.^ ^ ",
"6 % D {.e.n q {.OX).G.G.H.H.H.H.L.S.H.L.I.H.S.H.S.S.I.#Xe.n 8 ; ; $ $ $ % ; % = C y.t.W.@.4.W.v.b.v.5.5.7XF 8.j.( q.!./.^.^.^ W ",
"d.e.Z S z C [.|.).G.).H.H.H.L.H.H.H.I.S.H.I.S.S.U.I.}.t.q @ ; , $ & , # , 8 : ; i j k y.+.y.E.b.v.6.7.I !.f.F ( x.0.0.!.~.!.E a ",
"+X@X.XG. X@X5Xp.k i.}.H.).L.I.H.I.H.L.I.S.H.S.S.XXS...5 O % 6 % % 0 h $ f f ; ; 7 l A &.A :.K.v.R.o.c.G c.W.F ^ Q.Y.x.Y.E.Q.( F ",
"[.@X@X@X+X).C j y.|.G.I.).H.H.L.H.I.S.H.L.H.H..Xk.Y i 7 : g j ; ; Z D , 9 V 0 $ 9 V V &.Z S g.K.R.8.c.( 8.v./ Q.x.Y.Y.(.Y.Q.^ a ",
"n n e.D B n C G..XH.S.F.).).L.H.H.I.H.H.S.H.|.y.p n C M Z D l z z _.>.l e.p.V 9 V e.S S r.d. .y.7.w.x.4.F ( ( E.0.(.0.Y.(.!.L t ",
"G. .C  .e.). X|.S.G.H.).`.).H.H.S.H.S.S.S..Xr.i x C i.d.|._.u.&._.wX_._.OXu.D &.V Z Z C &.p.D  .@.o.c.z.F a x.Y.0.0.0.Y.0.E.~ w ",
"oX@X#X+X.X|.).[.H.H.).}.).H.I.L.I.S.I.I.U.S.p V _  .a.i.OXM._.u.OX_._.u.$Xu.&.&.V h A &.&.u.D S g.c.z.7.8.C.Y.9.0.Y.0.0.0.E.( a ",
"[.I.I.}.H.).[.[.[.H.[.H.[.[.}.H.H.H.S.L.XX_ 8  .&.C m.r.)._.u.&.p.V A x u.:.:.C Z V z D e.e.e.l ..K.7.7.^ f.7.9.0.0.0.q.q.q./ d ",
"}.[.}.}.[.H.[.).I.H.[.[.[.H.H.}.I.I.L.XXi.i p e.Z C ).e.&.i._ M V V j k m.F.p.V V Z z l D D e.n k l.f.7.o.8.9.9.0.0.(.0.0.E.w.d ",
"|.}.}. X|.|.[.[.H.[.}.S.G.H.H.H.H.I.L.XX..5 C e.i C `.y.N i k Z f j B M.XX`._ z Z  .l l S S S g 9 y.z.7./ 7.x.7.8.q.0.0.x.E.#.d ",
"|.}.XX}.}.[.).{.oXI.t.[.H.H.H.).H.I.I.XXC ; V  .r B '.L._ i _ &.r _ L.,XyX,XO.l Z Z V l V l l f , A l.6.o.8.7.7.8.9.9.q.x.^.w.s ",
" X X}.}.}.}.[.+X).p d.XX}.I.H.H.I.I.|.U.B % 6 q p Y '.0X=Xm.A.g.h.4XfX6X6X,X:.x V ' l f 9 g n g 6 j h.f.I o.7.9.9.8.9.x.x.Y.^ a ",
"}. X}.|.|.{..X X8  .+X}.}.}.S.H.I.I.}.#Xd O # @ p t.,XcXcXfXyX6XgXcXcX6X%X@.N B v  .V < 6 6 6 f 6 , | K.! / l.7.q.z.x.b.q.x.~ w ",
"}.XX X X X.X+XS ..+X|.I.I.I.J.J.I.S.I.XXp . O % v P.fXlXxXxXhXgXhXhXfX0XP.T r r x M l 9 6 6 6 f f $ M z.! 4.f.7.8.8.8.w.8.Y.~ 5 ",
"}. X}.a. X+XC C +X|.}.|.I.I.H.J.Z.k.I.k.i O . @ N W.fXgXyXtX8X8X6X2X2X2X-XN.U : > j h j 6 , f 0 , . k h.s f.z.9./ ^ w.#.( x./ e ",
"}..X|.i..Xe.M |.[.}.}.}.}..X XH.Z.J.I.S.i O . ; _ j.%X2XqX&XT.&XqX;X&XqX8X1XP.O.= > i f j 7 < h ,   0 m d c.f.7.5.( / 7./ 8./ e ",
"}..XoX|.e.C }.[.I.}.}.}.[.k.I.[.J.I.I.XXk . O 7 [ $.^ T.T.T.&X&X;X0XiXhXzXpXyX%X=.p x 8 h n h A u.o : Y w.4.4.8.5./ 5.o./ 5.^ s ",
".X|.5X).M [. XD.I. X}.}.y...|.}.Z.H.U..X&..   0 h.T.R.;X&X;XqX;X8XhXzXzXnXMXmXxXeXn.;.C 5 h t ' '.1 5 l./ / 6.f.5.5.8./ ^ 5.~ e ",
".XoX5XV &.@X).s.Z.|.}.I.Z.S.}.}.Z.H.I.L.XX% X v %X0XpXpXtXtXtX&X2X2X2X9X-X-X>X%X*XP.F.F.v 5 r { B.> i t.X.4.4.8.o./ o./ / #.X.s ",
"OXoX}. .G.|.).G.G.I.I.}.}. X}.}.t.Z.`.H.XXj X A gXmXnXzX9X&X&XT.T.,.] b > t v N ) -.n.4Xr.r m =.C.a C @.o.4.4.8.5.~ ^ / / 5.^ s ",
",X|..XoX|.)._.).I.J.I.}.[.I.XXI.F.H.H.Z.I.C X ;.gX%XN.,.K ] ,.1.{ P 3 1 + o * 1 > c 2.rX%Xv v 3 } O.:.X.Q 4.4.f.6./ ~ ^ W / E u ",
"i.5XoX.X).).{.).I.G.[. X}.|.}.XXXX).G.F.I.a.@ N <.y = @ = > J %.} b < + , * * < 3 ) '.>X%X[ *.3 J +.y.~ ! X.o.5.o.~ ~ ~ ~ ^ E e ",
" .oXoX[._.).).).a.J.|. X[.}.}.|.F.Z.}.}.[.G.B u y > O     + 1 3.*XP < + < h h V ;.%X4X,X].' *.*.O.X.t.X.! @.o.#.o.I I X.~ @.R e ",
"s.I.#X|.G.).[.).Z.G.}. X}.I.}.I.Z.A.`.H.A.F. .U e o & & & + - kXDXC.y 3 1 3 P ,.-XyX3X4X].U U %XO._ y.@.! ! ~ o.~ ~ ~ ~ ~ ~ X.e ",
"e.G.5X}.).[.{.G.H.H.}..X}.I..X}.F.G.).H.G.'. .;.) > < 3 < - P MXnX9XC.,.%.,.T.9X0XrX4X4XV.*.F.Z.U | @.+.Q ~ ~ o.o.X.~ ~ T ~ @.w ",
"e.|.5XI.s.[.I.G.H.H.[.}.S.I..X.X`.G.).H.A.F. .h.=X#.L y 3 b %XmXkX8XqX&X&XqXpXtXyX3X>X*X'.2.&.m B :.+.| ! X.4.o.o.^ X.~ E X.E w ",
"D OX X{.[.G._.).H.}.I.G.I.}. X X`.G.L.G.A.M.:.' &X&X&XT.V.T.8XVXDXpX%XT.qX9XtXtXrX*X*X>X>X*.> 5 | ..4.| I Q @.o.X.o.6.~ ~ ^ R e ",
"&.5X#X.X).).).).H.}.|.|.|.|..X}.F.L.H.H.H.m.D.U 1.qXtXtX8X3.qXZXZXmXlXT.T.;X;X*X%X%X%X*XrXv # j _ +.+.! Y ! o.4.o.o.^ ~ T E R 5 ",
"_.5X#X X[.[.[.G.G.).}..XI.[..XI.H.H.H.XXF.Z.XX..R &X8X9XT.3.&X9X9X%X'.3.T.C.C.C.3.'.%X4XeXh X v 4._ | | Y ! X.4.o.o.~ E I ^ F e ",
"5X.X+XoXoXoX[.S.}.I.I.|.[.I. X}.}.`.).F.Z.g.F.g.L $.T.%X3.$.H L } 3 4 3.8X3.,.,.3.N.%X,X6X0 o j &...| ` Q Q 4.X.o.o.W E I ~ E r ",
"+XoX5XwX+Xe...}.H.}.I.I.I.I.}.I.H.H.H.H.A.g.I.A.T ] } $.} 3.L > y K ,.*X<X3.,.,.1.N.'.>X,X0 # j +.+.+.| | | 4.+.o.W ~ E I I X.t ",
"wXdX+Xe.n n e.{.I.I.[.[.I.I.XX XH.r.H.`.G.Z.S.S.y.] W K L N.1.P ] P ] $XJ 3 { 1.3.N.%X>X>X7 $ i B | Q m a m | h.h.o.4.Q ! T @.r ",
"@X&.n S e.OX{.I.a.a.[.I.s.I.}. XH.t.H.H.G.A.k.M.k.O.W K L a b 2 2 > 3 y > 4 K N.N.N.].=X%X: % 0 u N a a w 5 e w a R 4.o.T X.Q u ",
"z V [.5X XG.I.I.G.G.I.[.I.}.|..XL.t.Z.L.H.g.y.L.Z.h.} W ] t - 2 3 3 ] ,.<.2.] =.N.B.'.%X=X; ; q B X.| | ` U T Y u 5 e ) Y Y I u ",
"p.wXdXI.I.G.[.G.G.I.[.|.[.G.|. X).m.F.G.H.k.S.L.H.L.A.R K K K L L H 3 P @.1.$.<.N.C.M.].XX: % 8 a | _ Y U N ` y.h.` s s R I R a ",
"5XoX X.X[.G.[.).G.I.H.I.}.H.}.}.H.Z.L.L.Z.L.I.H.J.k.U.n.W L W ) K P ] 1.V.3.1.N.1.<.-.].'.: @ i p m ..Q Y Y | y.O.R R I d Q @.a ",
"oX X.X5X[.[.).).G.[.I.[.I.G.I.}.I.A.I.XXZ.H.S.H.S.k.[.#X-.) ] { $.$.3.C.].B.C.2.) ) ;.'.P.: @ q M B | ..m N | X.X.Y | R Q Y Y x ",
"+X+X.XoX[.G.).G.J.a.[. X.XZ.I.}.I.H.I.I.S.S.k.Z.#XXXy.d.M.c ] <.,.} ,.3.3.3.%.L K *.n.'.n.= = q a C m Y d B ` | | U Y U 4.w u a ",
".X5XoXoX|.G.).|.H.J.H.S.G.H.I.}.}.I.S.F.S.S.t.I.Z._ Y t.P.c a U } ] ] ] K b b } O.{ h.'.g.< = 8 8 B m a r m | X.! m m ` M > N a ",
"oX.XoXoX{.Z.H.|.[.[.J.J.G.G.I.|. XG.F.F.A.S.H. .a y.}..Xt.N c y b b 2 > > t *.2.[ *.m.B.n.a + q i v ..m u w e l c m R c = a +.w ",
".X.X X.X[.J.H.G.D.G.I.{. XI.I..XH.i.Z.H.F.L.S x [..XI.}.Z.m ) J b b t 3 j ' ;.-.-.*.h.B.n.] @ @ i i k u p  .`.dXdXN : e e Q T i ",
"[. X XoX}.{.[.s.G.a.G.J.s.I.I. XJ.t.F.`.F... .|.H.Z.S.}.g.v ) ' P P N b P [ ;.;.-.-.-.n.B.B.l = @ @ x H.eXSXIXPXPXHX0 - I m ! u ",
" X|.oXoX{.[.[.).J.J.I.G.I.s.I.}.`.t.Z.`.t.i i.Z.'.'.F.L.c y ' ' P P P %.;.-.;.;.*.-.;.y.B.'.n.' ) ].jXZXZXMXNXNXDXPXUXk a N | a ",
"+X.X X.X}.G.).G.a.a.J.I.}.G.G.I.F.t.a.D.)...5 &.eX4X=XB.R t y U P ) %.;.;.;.;.%.-.;.2.[ %.B.4XuXnXlXpXtXuXjXjXBXDXLXPXLXoXc m u ",
".X.X}. X}.I.).[.J.a.a.a.J.J.I.{.|.).H.G.J.a.i.4X6X3X-X%XB.{ b k N %.%.%.%.%.>.2.*.[ { B.rXpXkXyX2X8XtXrX<X*XrXjXNXVXSXIXZX'.u a ",
"#X X}. X|.G.G.G.J.J.I.I.G.[.{.}.oX`.D.D.d.Z.eXgXyX0X4X*XT.C.R J >.%.' ' %.' [ [ =.n.>X<X3.%X<X%X%X%.L %.B.].<X%X3.T.3.*XyXjX| = ",
" X X|. X{.I.G.G.J.J.s.I.{.I.G. X|.D.m.i.XXcXMXzXkXyXyX4X-XN.{ <.1.1.%.P ' P ' -.'.<XN.2.%X,.] J b [ {.eXBX0X4X*X,XrXwXdXDXKXdXt ",
"}.}.I. X[.I.I.J.I.d.e.J.G.s.I. X`.t.:.|.3X3XyXMXZXnXzXyXyXT.T.<XP ] N.%.[ } 3.%X%X2.} tXpX{ 1.>XjXVXjX=XN.=XdXHXIXPXPXPXKXKXIXHX",
" X}.I. X XI.a.Z.a.J.J.J.I.s.Z.Z.F.}.,XjXrX1.y y C.uXkXzXkXuX2X2XV.,.1.3._.'.'.'.C.,.T.nX4XpXMX3X2.] ;.'.jXKXPXKXKXKXKXKXKXJXKXPX",
"#XI.I.{. XI.a.Z.J.[.I.I.).i.|.dXBXCXAXVXZXZXyXL - L $.} L y 1.kX*X%X%XV.N.3.1.3.%X%XuXpX%XT.L J N.eXSXKXKXLXJXJXLXJXKXJXJXJXJXKX",
" XI.J.I.[.J.D.a.I.I.G.d.m.dXGXJXGXAXAXVXMXnXCXZX1X$.$.3.,.] T.lX%X%X<X%X'.3.3.3.3.%XnXiX$.2.%XnXFXZXCXCXGXLXGXLXLXGXGXFXFXFXLXJX",
" XI.J.I.I.s.a.a.G.[.i.`.CXGXGXFXAXAXAXVXCXmXnXnXMXnXzXlXxXxXgX0X1X-X2X8X3X3X3X1XR.1XmX%X3.zXcXlXlXnXZXAXSXLXSXSXSXFXFXSXAXSXSXLX",
" XI.G.G.J.a.a.a._.a.F.AXGXAXAXAXAXAXCXVXMXMXmXxXxXxXxXgXiXgXfXgX1X8XuXpXtXyXtXiX0XuXnXT.%XmXmXMXMXAXFXGXLXFXLXFXLXSXSXSXSXZXZXZX",
"#X[.J.J.G.s.a.J.s.a.vXAXAXAXAXGXGXAXAXCXVXMXMXmXxXxXxXlXhXiXuXhXyXgXzXuXuXzXlXlXzXlXkX4XMXZXAXAXGXFXFXSXSXFXFXGXSXSXZXZXZXSXZXyX",
"#X[.G.G.s.s.a.I.d.dXGXmXAXAXAXAXAXAXZXAXCXVXMXMXMXmXmXxXxXzXuXhXyXkXlXzXlXlXxXxXzXlXuXfXSXAXAXAXFXSXFXFXLXFXLXGXFXSXSXZXZXSXBX*X"
};
