/* XPM */
static char *ce70b3a621314f53efbcf3b93ceffc3eCjksBpyKvVyQ5Xsz[] = {
/* columns rows colors chars-per-pixel */
"64 64 256 2 ",
"   c #020202",
".  c #0B0303",
"X  c #030B01",
"o  c #0C0B0B",
"O  c #090907",
"+  c #140A09",
"@  c #041202",
"#  c #0A1404",
"$  c #0C1A04",
"%  c #0D1B0B",
"&  c #0A1609",
"*  c #14120D",
"=  c #121D0B",
"-  c #171908",
";  c #150B12",
":  c #0D1912",
">  c #1B1512",
",  c #1C1B14",
"<  c #161915",
"1  c #0D0814",
"2  c #270C0A",
"3  c #26130C",
"4  c #271A16",
"5  c #371A17",
"6  c #3A150B",
"7  c #0B2406",
"8  c #132305",
"9  c #14230B",
"0  c #1A250B",
"q  c #1C2C0C",
"w  c #172A06",
"e  c #1C3507",
"r  c #152313",
"t  c #1A2413",
"y  c #1C2B14",
"u  c #192819",
"i  c #1C3214",
"p  c #1E341A",
"a  c #0D2113",
"s  c #25390B",
"d  c #262819",
"f  c #35261C",
"g  c #233414",
"h  c #273819",
"j  c #343C1A",
"k  c #262A0C",
"l  c #161425",
"z  c #261B2A",
"x  c #1C2C26",
"c  c #262925",
"v  c #372925",
"b  c #273627",
"n  c #36362A",
"m  c #2A3935",
"M  c #393A36",
"N  c #312B37",
"B  c #461815",
"V  c #4D1913",
"C  c #492518",
"Z  c #57281B",
"A  c #48220F",
"S  c #6C281A",
"D  c #482926",
"F  c #582924",
"G  c #48352A",
"H  c #463B36",
"J  c #54352E",
"K  c #662C24",
"L  c #683526",
"P  c #783729",
"I  c #703834",
"U  c #4E1A24",
"Y  c #284609",
"T  c #34490C",
"R  c #2A4416",
"E  c #354918",
"W  c #395618",
"Q  c #34560D",
"!  c #2A4626",
"~  c #354827",
"^  c #3A5425",
"/  c #374738",
"(  c #3C5437",
")  c #2A4836",
"_  c #325A14",
"`  c #445818",
"'  c #425B07",
"]  c #476819",
"[  c #567819",
"{  c #4D6E14",
"}  c #445827",
"|  c #44453A",
" . c #465736",
".. c #524B30",
"X. c #774636",
"o. c #6C4A35",
"O. c #4B6527",
"+. c #577827",
"@. c #576B39",
"#. c #5B7636",
"$. c #506C30",
"%. c #667631",
"&. c #62791D",
"*. c #2D3448",
"=. c #543751",
"-. c #3B4A44",
";. c #384E4D",
":. c #39566B",
">. c #484846",
",. c #475847",
"<. c #4F5452",
"1. c #725549",
"2. c #4C6349",
"3. c #556947",
"4. c #597747",
"5. c #4C6656",
"6. c #576857",
"7. c #597357",
"8. c #4C7355",
"9. c #6B734F",
"0. c #53536D",
"q. c #576C6C",
"w. c #667967",
"e. c #687670",
"r. c #6C4B68",
"t. c #853B2B",
"y. c #913E36",
"u. c #8A4738",
"i. c #934838",
"p. c #99543B",
"a. c #8D4730",
"s. c #A74C37",
"d. c #975648",
"f. c #91524C",
"g. c #A55A48",
"h. c #AF574E",
"j. c #9A6758",
"k. c #8A6E53",
"l. c #AA654B",
"z. c #AA6658",
"x. c #B66A58",
"c. c #BA755A",
"v. c #B66E4C",
"b. c #94536B",
"n. c #96726A",
"m. c #B87866",
"M. c #B97873",
"N. c #AA716B",
"B. c #AB596F",
"V. c #C5755B",
"C. c #C77A66",
"Z. c #C9736F",
"A. c #C15C64",
"S. c #6A8F13",
"D. c #5C842A",
"F. c #6F8D30",
"G. c #7CA527",
"H. c #6A950E",
"J. c #688649",
"K. c #78914E",
"L. c #728D6F",
"P. c #5B8561",
"I. c #90B213",
"U. c #8BAE2F",
"Y. c #90A033",
"T. c #ADCE30",
"R. c #A5CF1A",
"E. c #8EAC4F",
"W. c #8A9271",
"Q. c #B78570",
"!. c #8EA96F",
"~. c #9BAB5D",
"^. c #C7856A",
"/. c #D3886B",
"(. c #C98876",
"). c #D38B77",
"_. c #CB937A",
"`. c #D79579",
"'. c #CB906E",
"]. c #D58B6A",
"[. c #B2CC57",
"{. c #BDD56C",
"}. c #CCE13A",
"|. c #4A5889",
" X c #50708E",
".X c #6B758B",
"XX c #5573A9",
"oX c #686D9C",
"OX c #385FA0",
"+X c #8D748A",
"@X c #C66C86",
"#X c #588894",
"$X c #738D8C",
"%X c #7DA38A",
"&X c #6E95A8",
"*X c #78A8B6",
"=X c #75A4AE",
"-X c #5F92A8",
";X c #7BAED2",
":X c #88918C",
">X c #B0898B",
",X c #92A990",
"<X c #8795AF",
"1X c #89ADB5",
"2X c #ADADAA",
"3X c #B5A8A2",
"4X c #D68C86",
"5X c #CD9886",
"6X c #D89A86",
"7X c #CF9690",
"8X c #E4978B",
"9X c #DAA28B",
"0X c #DBA797",
"qX c #D6B299",
"wX c #E4A38B",
"eX c #E5A996",
"rX c #E8B39B",
"tX c #C49AA8",
"yX c #D3B1AE",
"uX c #E7B7A7",
"iX c #E8BDB4",
"pX c #F0B4A7",
"aX c #B2CAAA",
"sX c #B2C691",
"dX c #E9C5B7",
"fX c #F3C6B7",
"gX c #FDC0AD",
"hX c #D9E5A3",
"jX c #8AB7C6",
"kX c #92B5CF",
"lX c #B3BBC7",
"zX c #A7B4E6",
"xX c #D3BAC6",
"cX c #CDB9C6",
"vX c #E4B0E0",
"bX c #9AC5D4",
"nX c #93C3CA",
"mX c #A6CAD9",
"MX c #ADCBD2",
"NX c #B6D6E4",
"BX c #B2CFED",
"VX c #9BC7EA",
"CX c #D8CAD7",
"ZX c #D4C7CF",
"AX c #E2CBD9",
"SX c #E9D4DB",
"DX c #F0D3CA",
"FX c #F8E4D6",
"GX c #D0D5E8",
"HX c #E8D9E7",
"JX c #EBDCF4",
"KX c #CEEBF3",
"LX c #EBE2EA",
"PX c #F4E6ED",
"IX c #F3E7F3",
"UX c #ECEFF6",
/* pixels */
"! K.8 9 a W ^ O ] ^ * u J.8.) : $ q s s s i ! h < 4 < * c 4 < > < c 4 < ; 4 4 q & r 2.2X<.X < y p t : R 3.p 7 u x ;.q.0 ~ g O.9.",
"$.F.] E 9 R # j R a ,X3.i m 0.h 8 w Y s E 8 @ / c & < * 4 > > > , v N > * > , g 0 0 p >.< = 0 r r g @ K.J.R u u 7 q.lX% n   0 J.",
"9.[.G.E.q t - $.^ >.%X&   7.L.x w Y s Y e s s d x * * > c 4 , d 4 4 4 < , 4 c 9.$ $ # # n ~ y % a w R E W ~ 7 w 7 2.<.= ( n @ ! ",
"[ Y.{ G.0 X 9.E.  y ( u $ ! p @ ! T Y s $ h Y - = * * > c N c O 1 1 1 l l O c 0.  8  .<.8 q ~ : & & ~ q % D.] 7 u ! a b u ,.% & ",
"S.Y D.` O 6.MX4.% b 7. .R ;.! $ u h s , - s Y d < < > < > . z oX+X$X&X=X1XoX*.l M 8 ^ w.- ~ y , % r q g b U.] 7 u m h n u q 9 p ",
"O.q E 0 ~ aX2X,XL.% p R @.D.R : $ q = o s Y e = . # O O   *.lXUXUXUXUXUXKXKXGX<X:.  >.<.q !.0 # 9 q 0 q ! Y #.^ 9 b 7.( r d < : ",
"^  .@ O c q 7.aXK.7 Y G.] ' e u E e k # + s @.5.0.q.q.<.0.GXUXNXBXmXLXGXmXNXKXUXbX$XkXlX .w e.w.b b h & p e ~.@.& ! ! h 8 t o & ",
"^ ! ~ E     P.L.] { _ G.e Y 8 @ 9 g $ z 0.$X$X.X.Xe.e.$X1XMXNXKXKXNXGXNXNXmXVXBXKXKXGXNXMX( <.6.g b r % : b h R h ) X #  .u & % ",
"u 7 ^ E < T 8.$X^ #.] F.D.] u Y q X ( <X:X<.>.>.H >.H H >.<.q.=XmXKXmXmXbXbXVXmXnX=X-X=XnXbX9 O r h 9 a 9 p 9 b i ! p L.( $ # # ",
"t h 9 { T s ( 8.8.J.Q D.U.Y 9 ^ Q 2.:X6.M H >.>.>.>.H M N H H M q.<XnX;X=X=X*X*X#X#X#X#X#X*X$Xq.b 7 g h r i q 8 a q ^ L.g 8 # 9 ",
"b 0 q W E.} E Q e +._ O.q @ #    .2X>.n | >.H H M M v 4 > > 3 3 3 d q.bXVX=X-X-X&X-X#X#X-X=XnX2XW $ i i 0 0 y % $ g R ! w 0 * = ",
"* - , > ~.j   Y ^ D.@ 9 = % & @ 5.6.M >.>.H M N c 4 2 + 3 3 3 2 3 2 . *.1XBXjX=X=XnX*X-X-X=XnX8.w 7 w s ^ 0 $ u y 8 ^ ^ @ # & 9 ",
"d , > c # k r ! s w : = 0 & X W 7.M | | *.n c c z + 2 C Z F Z K K Z 6   l $XBXbXnXjXbXbX*X=X1X=X7 w e 7 R 9 : u u X $.L.g   & q ",
"] :XqXI.s r ` [ e , & T { X j R ..H | H H n d , + + Z t.P S P t.P L K 5 . o $XGXbXnXbXmXbXjX=XBX#X7 R e T g < c x & 4.!.h   # : ",
"' } K.R.U.= = +.h E , W E.F.@.O ` 9.N n n c z , . C t.t.i.a.a.u.a.t.P Z 5 .   q.mXbXbXmXmXmXjX1XmX) a p n ! g t , < P.J.e 7 O s ",
"Q Q ] T s E r O d 0 ] E O.U.F.% %.} M M c , v > 2 K P a.u.u.i.i.u.y.t.L V 5 .   <.nXbXjXNXbXkXjXNXq.@ % = i g % u a ( ^ R e X ~ ",
"W W Y 2.r Q O.t 1 } U.9 T.Y.%.R E $ h v b < 4 + A X.P u.f.u.d.u.f.i.u.t.K B 2 +   m 1XnXjXmXjXbXmX$X7 % r # g b u u $ q 9 R R a ",
"S.@ e ( ! e  .( , # ..O.I.G.j E R F.j . < M c 2 F d.l.l.d.f.z.z.h.z.g.f.t.K B > +   * .X1XnXjX1XbX1Xi u % @ b p t 9 & & a R W @ ",
"H.Y { s q e p b n @   &.D.' . 0 E W 0 O . H v C P X.g.m.m.z.M.m.z.f.I P P P Z B 3 3 .   ;. XkX*X*XjX) 7  .( & x u % : y - r @ t ",
"H.Y { D.  a 9.,.@ b 4   0 s 6.e.$.e @ O ; d f Z S Z u.x.m.c.Q.c.d.i.t.t.p.a.a.S B 5 4 3 . l ,XnX=XjX( D.G.^ x a g u 7 9     # u ",
"U.F.E +.E s T.K.E } 9.  O : L.| K.D.& O > > f u.g.p.y.d.x.Q.(.x.h.s.g.h.v.c.V.u.U 5 f f 3 . <.nX*X1Xp Q { m q.r b 9 : & R T $ i ",
"hXF.$.$.!.Q ] #.D.0 ..h <   y 8 r ^ E O < > f z.u.K F I h.Q.(.x.g.P S t.g.l.C.^.a.6 5 5 z > 1 <XnX=X@ @.[.b ( Y e 0 9 = W E.g $ ",
"U.%.~ W { K.` 8 e O.} h / d   c b @ ` d . # f a.B H ; 4 f.5X>Xc.y.Z 1.H f t.l.'.c.K B 5 4 ;   <.MX$X  U.E.Y.$.R w r h :   ^ ~ $ ",
"8 } W Y Y K.#.$ r F.j u / m O * E 8 k , + & n d.I I D F N.9X4XM.f.S r.1.J a.s.c.).m.F 6 5 4 O   aXP.e G.S.[.T.H.O.O.) y =   y w ",
"@ T +._ { Y Q k 8 ^ 9 y p h g + # ~ ^ , o 4 k.Q.j.f.y.g.8X0X7X7Xm.f.f.z.Q.^.(.5X5X6Xj.6 2 ; B I $XJ.H.S.H.I.R.}.hX}._ e u $ @ 4.",
"9 = T T ` T ] Y s e j b y S.0 > O h  .> > J Q.5XM.N.B.4X7X7X0X0X8XZ.Z.4X0XuXrXqX5X9X(.L 5 . f.C.W.^ 7 S.' R.T.hX}.H.Y s @ 7 ) nX",
"8 # e Q w Y s q E Q E : k D.r E d X 0 . d ..Q.(.4XC.m.eXiX0X4X8X0X_.4XpXiXiXuXqX9X9X5Xf.I u.x.C./.} @ e I.R.}.I.I.{ 7 ! q.;X;X;X",
"= # W Q s w 0 s Y Y h g q T 4.9.} . * * 4 H n.'.(.^.m.(.6X4X7X5X4X4X9XuXiXiXuXeXwX5X`.j.g.v.8XeXc.k @ e R.H.U._ I.S.p *XBXBXVXVX",
"9 h J.@.s 8 8 R W R q y h +.F. .d - * o ; , n./.(.c.p.l.x.t.z.Z.(.C.8XrXpXuXuXeXwX4X^.c.c.p.h.pXj.# , E.H.7 G.Q I.L.;XUXKXvXvX2X",
"} i ~ ~ q 9 9 q ! _ r q $ E.F.  d k o 1 + O f./.V.l.a.a.g.C.M.4X0Xx.C.eXeXuXuXeX4X(._.'.6X^.s.8Xn.n - c Y T.}.I.#.lXGX<XoX0.r.+X",
"k / 4.8 0 i y r i e q t a } 9.R w ..= O o * ..C.g.l.l.l.^.0XfXiXuX^.l.`.wXwX0X8X6X(.9X5X^.6XwX(.o.1.c >.K.G.T ..qXzX|.*.z . . z ",
"u ,.W & % h y r i e R s 7 6.3.' s [ k ; * < f c.g.s.l.d.x.M.7X0XuX0Xl.c.`.).wX9X6X6X9X5X(.6XgXz...3.L.KX@.X @ e.zX<X*.=.N Z Z B ",
"i j 8 ~ 7 7 9 i s s W #.0 b ~ 9 { D.j + ; * 0 z.v.d.I u.x.N.Z.A.M.4Xv.v.).`.`.9X9XeX5X6XfXfX7XI k.L.9.L._ e a -X;X:.<.*.B P t.P ",
"8 - $ q e & 9 i Y s Y s 8 # g ~ G.] b > * : , 1.V.h.B f.M.@X4XB.K B d./.6XwX6X9X9X9X5X5XrX7XJ J 9.~.4.= #.D.8.;X X:.=.U K d.v.s.",
"y g h q s b 3.~ _ w w s w = = q G.` 3.3 O 4 f o.^.v.f.Z.b.b.4X8XU 6 x.).0XeX9X6X6X5X4Xd.N.1.+ J k.T.U.&. .O.L.#X0.r.=.U u.x.^._.",
"o 0 < & = M >.h s e Y Y Y 8 $ y R $.@.O 1 d G G j.v.x.8X@XZ.4XA.A.4XC.'.wXwXwXwX6X'.Q.l.X.f 2 D j.Y.R.R.8. .q.oX|.=.*.z d.m._._.",
"    O     O   1 O * s Y Y E T p ) 2.( # o > c . o.^.p.C.A.A.h.A.eX9X/.'.wX`.wX6X).(.'.N.V > 5 D 1.Y.Y.T.O.,.|.OXoXr.*.U g.Q./._.",
"<. .X M d d + + o   @ Y # ~ J.E ( q.,.4 O & > * G ^.l.g.s.s.s.Z.9X`.`.'.`.wX9X).m.(._.f.2 2 v D 1.9.%.Y.@.) |.+XB.0.*.=.z.Z.(._.",
"2.^ 9 ~  .E w 8 -  . .d . O t n 8.L.5.: O * > - k p.v.p.i.s.v.`.wXrX9X/.`.`.`.Z.C.'.N.Z 5 f f D 1.9.O.E.<.*.b.b.r.0.l *.x.C.'.5X",
"y 8 0 & i 8 k k - K.J.7./ < . . y / ) u , O + - 3 ..'.v.x.^.eXuXuXrX`.).`.).C.c.Q.(.X.6 D 5 4 D k.@.$.Y.W ..b.&XOX:.*.I x.c.(.4X",
"} w e g = g g $ # e i 8. .w. .+ > % u ! 4   O * d 4 j.].`.9XrXpXuXwX`././.V.p.g.Q.f.6 f 3 4 v ..#.O.D.D.8.7.oXOXXX|.=.b.Z.B.x.C.",
"k g ` g # 8 w d ( } y i # E 5.p i < # u o O   O G f G Q.`.'.`.`.8X/.v.l.i.S S h.d.B B f 4 5 5 o.%.D.J.P.L.,X XoX0.|.=.B.d.J J f.",
"s d y y & w $ | ,X^ w $ X 8 % u ! ! ,   . o O * G v d o.k.l.V.V.g.s.C.Z.z.z.Q.9Xj.B B 2 3 5 5 1.E.J.hX{.J.8.#XoX|.OXU b.b.<.z K ",
"` E $ s R h   K.hXK.$.E -.X $ b b } }   ; O & , f d v f C G o.s.t.c.pXrXrXfXdXdXiX0XN.1.J 5 B ..@.E.hX!.) x M &XXX+XI B.x.N.1.d.",
"s { Y W s j k @.,.@.E.#.3.  h d & y $.~   1 o * f f f f D d 6 h.t.].rX5X6XqXuXqXiXDXDXdXyX7XQ.k.K.K.D.D.W i 2.XX|.|.0.@XZ.M.Z.4X",
"D.O.8 Y w ` &.T X ^ 4.` W @.b # E ~ y w.* O * , f f f f v D g.s.s.].`.'._.0XqXqXuXyXdXdXDXFXDXDXDXDX~.+.O.$.#.=X|.XX|.Z.8X4X(.uX",
"O.q X 0 ~.K.&.` +.O.8 w R F.w $ D.R.% L.c   O < D d d G c f i.t.s.V.].Q._.'._.qXqXqXyXxXZXDXDXDXFXFXPXdXsX~.D.$.:.XX|.4X8XeX).).",
"X X E ` ,X{.E.D.J.s . t O.] s R U.G.} m c   * > f f n G 3 3 F s.v.V.V.v.Q.^.Q.Q.5XqXuXdXdXdXdXZXDXSXFXPXPXFXqX] ) :.oXtXeXeXz.h.",
"R e T J.( r J.~.` [ y %.U.% & # O.^ L.b c O + 4 4 4 n ..n F Z.V.v.V.v.s.l.v.c.Q.Q.5X0XyXiXiXuXiXDXiXDXAXFXFXPXDX9.~ n.4XeX4XM.).",
"G.] e #.K.g 4.{.s O.j S.}.: # @ r 4.E.4.l * * > 4 - f J >.o.d.V d.V.V.t.L u.i.g.^.^.5X9XuXuXqX0XrXuXdXdXfXDXDXfXDXW.n N.8X4X4X8X",
"] I.K.K.2.W.j W.j - n 7.J.} g ~ @.K.T.F.x o > 4 3 . d H >.D 4 J ^.v.h.t.6 . . 2 u.c.'.).0X0X0X0X9XqXqXuXpXdXfXrXpXFXn.z.8XZ.d.K ",
"' F.sXW.# j ~ 6.@.s *..Xc y m -.,.S.U. .7.; + > , . 4 v G n f `./.v.y.V 2 . . J 1.X.m.).5X7X6X6X5X5X9XwXpXuXiXpXpXgXFXpX8XZ.y.V ",
"k O.T k -   ~ 6.4.3.a -.N b 8.;.0 I.S.e.:X1 . * d - . 3 > v ..(.v.t.S V 2 2 1.yX3X>Xn.b.(.6X`.`.).'.)./.8XrXpXrXrXuXdXdXfXeXZ.Z.",
"# ^ h   R g t h 9 6.m a <.2X$X,.b D.E.,XL.d   o 5 > > + 4 r.1.I Z S P 2 f +XZXZXcXCXZXtXN.z.(.`.).^./.C./.6XwXwXuXrXiXgXiXDXpX8X",
"g = 9 # : ^ 7.< u b / b 5.2Xb -.b ~ sX,X%X)   , > # 4 > d 1.| v f L V 5 >XHXAXCXGXHXLXLXZX>XM.c././.C.C.V.C.`.8X9XrXgXdXdXfXfXDX",
"s   g [ 8 6.5.t m O x b q.e.b ,.b M <.7.%X/ . d > + > v 4 J H G X.C 5 1.AXCXGXCXCXCXHXJXJXIXyXb.f.g.^.C.V.C.].`.`.wXeXuXpXpXpXpX",
"T $ T &.} ( r ( c u m b m x b 5.,.( < -.L.>.. 3 4 < + v 4 G o.o.J A A >XHXZXZXGXHXAXHXHXLXUXJXAX2X@XN.m.C./././.`.`.`.rXrXgXrXrX",
"K.@.[.` < x b b u b ) m u ; 6.:XL.) c / w.,.  , 4 + + d f G o.o.6 C J yXZXGXCXHXHXJXJXLXLXLXIXLXJXSX7Xj.l.x././.].`.].].`.rXwXrX",
"| {.[.j b < b a < -.u c m : >.!.W.2.b ( L.( O * 4 4 d D G o.o.A Z A 1.AXCXSXGXHXAXxXxXxXHXPXIXHXHXHXAX7Xf.I g.Z.].^.^.].`.`.`.rX",
"| K.| *.5.,.-.b / 5.b / -.x ( L.,XW.3.L.L.n . - > v v n G u.o.Z Z 6 +XSXCXZXAXHXJXxXxXyXtXyXAXPXIXHXHXxX>Xj.1.f.z.^.].V.].`.`.rX",
"/ z m x / 5.p b m 5.-.M b b / ,X1XaXaXL.L.,.  - > f f H o.o.L Z Z V 3XZXZXcXZXZXIXPXHXAXvXyXtXyXSXIXPXHXZXyX@Xk.f.d.l.c.].].].`.",
"b -.l x r ,.,.,.x / m b m < / q.P.$XL.%XL.,.. * 4 v G J k.X.A A A ..ZXcXcXZXcXyXCXHXLXIXIXJXHXxXtXxXPXIXHXHXCXqX@Xj.f.f.V.^.^.].",
"6.7.p / b L.aX6.r ) m 5.,.< -.w.%XL.P.L.,X2.. + f J ..v o.L 6 Z Z I xXcXcXZXxXZXcXZXHXJXLXIXIXUXCXtXtXPXPXHXHXSXZX>XN.j.d.c.c.^.",
"6.W.,Xe.;.7.aXaX9.w.,X$XL.c 6.aXZXsXL.L.aX9.  O z ..G v X.Z 6 F B o.xXyXxXcXCXHXHXHXAXHXLXLXIXPXUXLXtXtXSXLXHXHXSXZXyXQ.n.k.v.p."
};
