/* XPM */
static char *c8a5240224404218f3971316099777025VBSF7OmJOpXGtFS[] = {
/* columns rows colors chars-per-pixel */
"64 64 256 2 ",
"   c #020203",
".  c #050509",
"X  c #0B060B",
"o  c #0B0B0B",
"O  c #080807",
"+  c #140C0C",
"@  c #190D0D",
"#  c #150707",
"$  c #1B110E",
"%  c #13130E",
"&  c #0E0E11",
"*  c #120E11",
"=  c #190E11",
"-  c #0D1115",
";  c #141314",
":  c #1B1413",
">  c #1B1619",
",  c #1B1B1B",
"<  c #181817",
"1  c #0F110E",
"2  c #221514",
"3  c #241B1C",
"4  c #2B1D1A",
"5  c #281A15",
"6  c #361C18",
"7  c #2C0D0F",
"8  c #1B281A",
"9  c #2C231C",
"0  c #27221C",
"q  c #34241B",
"w  c #38251A",
"e  c #1C1D21",
"r  c #241D22",
"t  c #232223",
"y  c #2C2423",
"u  c #2C2A2A",
"i  c #292827",
"p  c #342A24",
"a  c #3B2C23",
"s  c #342C2A",
"d  c #3C2D2A",
"f  c #382523",
"g  c #3B312C",
"h  c #37362D",
"j  c #342D33",
"k  c #3C3333",
"l  c #3C3A3B",
"z  c #353436",
"x  c #2E2F32",
"c  c #1B212C",
"v  c #4A0C17",
"b  c #590C1B",
"n  c #4F181D",
"m  c #630D1E",
"M  c #47251C",
"N  c #542B1C",
"B  c #48311F",
"V  c #521A23",
"C  c #74182A",
"Z  c #691526",
"A  c #472A25",
"S  c #572B24",
"D  c #44332B",
"F  c #47342A",
"G  c #583529",
"H  c #433534",
"J  c #443B34",
"K  c #443D3C",
"L  c #4A3A37",
"P  c #533C34",
"I  c #593B35",
"U  c #4A2D33",
"Y  c #64392A",
"T  c #663B35",
"R  c #713933",
"E  c #61381F",
"W  c #2A5528",
"Q  c #4C423B",
"!  c #57443A",
"~  c #53452C",
"^  c #644335",
"/  c #6B4433",
"(  c #63443B",
")  c #6B453B",
"_  c #6C4A3C",
"`  c #64493D",
"'  c #724C3C",
"]  c #744537",
"[  c #7A533C",
"{  c #694532",
"}  c #3E3C47",
"|  c #453D43",
" . c #543D42",
".. c #613B41",
"X. c #3B4555",
"o. c #3A535B",
"O. c #4B4342",
"+. c #494748",
"@. c #534C4B",
"#. c #5B4C4C",
"$. c #574844",
"%. c #58524C",
"&. c #464B58",
"*. c #534D51",
"=. c #49505A",
"-. c #5C5353",
";. c #595759",
":. c #455B41",
">. c #6C4C43",
",. c #644B46",
"<. c #724D43",
"1. c #784C47",
"2. c #6D534B",
"3. c #67544A",
"4. c #7A5445",
"5. c #74544B",
"6. c #7A554B",
"7. c #785748",
"8. c #625453",
"9. c #645B5B",
"0. c #6A5A5B",
"q. c #685855",
"w. c #735D5B",
"e. c #785A54",
"r. c #69625C",
"t. c #74615C",
"y. c #7B635C",
"u. c #7C6558",
"i. c #766B53",
"p. c #444D63",
"a. c #4B5567",
"s. c #5A5765",
"d. c #4F5A71",
"f. c #665D65",
"g. c #675C73",
"h. c #586379",
"j. c #696466",
"k. c #7A6C6A",
"l. c #776666",
"z. c #79726C",
"x. c #766B75",
"c. c #7B7577",
"v. c #696473",
"b. c #4C7E4D",
"n. c #832337",
"m. c #845E39",
"M. c #835C4C",
"N. c #845449",
"B. c #835C51",
"V. c #865956",
"C. c #89524C",
"Z. c #86634E",
"A. c #886559",
"S. c #936A5B",
"D. c #8E7256",
"F. c #866A68",
"G. c #976A65",
"H. c #89736A",
"J. c #977569",
"K. c #876C72",
"L. c #837472",
"P. c #8C7B73",
"I. c #887978",
"U. c #937C7C",
"Y. c #977976",
"T. c #A4796B",
"R. c #A67975",
"E. c #A7716D",
"W. c #9A6359",
"Q. c #C16A79",
"!. c #578F6A",
"~. c #308850",
"^. c #8C847C",
"/. c #99837A",
"(. c #96836E",
"). c #A9867A",
"_. c #B48B7D",
"`. c #AB8A74",
"'. c #BAA27B",
"]. c #7C7A85",
"[. c #717390",
"{. c #887D84",
"}. c #957D83",
"|. c #AC7784",
" X c #837EA7",
".X c #C3768B",
"XX c #7F8284",
"oX c #5CA688",
"OX c #888589",
"+X c #978787",
"@X c #98928D",
"#X c #8B8B96",
"$X c #958B95",
"%X c #9C949B",
"&X c #999598",
"*X c #8F9295",
"=X c #A68A85",
"-X c #A8948A",
";X c #B69788",
":X c #A69999",
">X c #B79993",
",X c #B7888A",
"<X c #AAA19C",
"1X c #B6A49A",
"2X c #9895A6",
"3X c #9493AC",
"4X c #A39AA6",
"5X c #A59FB1",
"6X c #9EA2A9",
"7X c #A8A3A8",
"8X c #B6A6A8",
"9X c #ABA8B6",
"0X c #B3ACB5",
"qX c #B7B2BD",
"wX c #B9B2AA",
"eX c #C59A8C",
"rX c #C5968E",
"tX c #C6A599",
"yX c #D4AA9B",
"uX c #CD9AA9",
"iX c #C6ABA5",
"pX c #D7ABA7",
"aX c #CBB2A5",
"sX c #D7B6A9",
"dX c #CDB4B8",
"fX c #E4BCAF",
"gX c #D1C3B5",
"hX c #E7C6B8",
"jX c #E4C2AE",
"kX c #A5AAC7",
"lX c #B1ADC5",
"zX c #BAB7C7",
"xX c #B0B6D4",
"cX c #9FAED7",
"vX c #C5BEC9",
"bX c #CFB8C7",
"nX c #BBC8EC",
"mX c #BDC3D8",
"MX c #C8C3CC",
"NX c #CAC8D7",
"BX c #D1CBD9",
"VX c #D5D3DB",
"CX c #D8C8C8",
"ZX c #ECD3C8",
"AX c #CACAE3",
"SX c #DCDBEB",
"DX c #D8D6E5",
"FX c #D0D1EC",
"GX c #E3DEF0",
"HX c #E5E2EC",
"JX c #E9E8F6",
"KX c #F4F4FF",
"LX c #FDFCFF",
"PX c #F4F7FC",
"IX c #F1EFFD",
"UX c #EAE1E0",
/* pixels */
"i o < , < < , , , e , ; & f N.6.d 2 r < e t t e e t t e t e t t t , 0 q a g D F h w a F ~ h t i u i i i u x 0 < 0 d s K D.W.m.m.",
"< o o . O o - - 1 < o X x k I N.$   *.{.z . < < < ; ; < ; ; ; ; ; & % 5 q w w q w w w 8 u x , , , , e , e t , o < q y t B I a W ",
"< o o o o o c - o o O z.4Xc.4XY.t.s.^.&Xz.< - < ; < < ; ; ; > ; ; 1 ; 4 6 w w q w w w 9 u u 8 < , , e e e t 2 O o y 9 t e < 9 l ",
", o o o o o - . ;   k -X@X#XBX,XzXzX&X^.OXO.. ; < ; < ; < ; ; ; > + 1 9 w w w 6 9 w w w u 8 < 8 < , 0 e e 0 % < z i 2 ; e 8 h h ",
"< o o o o o o o o O i.-X@X6XzXBXvX9X@X^.^.j.; - < ; > < ; ; - ; ; 1 % 9 q w 9 w q q q 9 i i < < , < e , e 0 % W !.b.$.l i 8 1 8 ",
"< O o o o o o o   x ^.+X^.6XNXIXzX9XOX^.!.OXx o < ; > > ; ; & & ; 1 % 9 5 w w w w w q 8 u c < , e < < e e e % 8 8 W !.oXo.1   ; ",
"; o o o o o O .   O.-X^.$.=X:X!.*X*Xk.*X+X-X@.  < < e e > < ; < , , % 9 w h a w a w q 9 u t < < , , < , , 0 1 : D.i.~.~.W 1   , ",
"< o o o O o o o   @.1XL.P M.S 7 3.i.%.@XI.-Xj.1 < ; r , o o i l | l l %.8.+.~ B w w q i i t ; < < , < < , e   ` eX`.Q 8 8 ; O < ",
"< o o & o & 1 o   -.1Xi.[ ! s T ) Y ^ ^.z.^.^.; o > i l l x f.x.c.}.8.-.%.l.9.J q q q p i t ; ; < < , < < , O B W.m.0 o 3 , O < ",
"< o o 1 1 1 1 O 1 r.-X_ M q.c.l.l.@.D I.r.^.&Xx   j ;.k.{.L.c.j.!.F.L @.;.I.z.j.;.Q J J l t ; ; < , , , , < ; O 6 7 , : , ;   < ",
"< o o 1 1 ; 1   3 3.D.F | 6X5X7X*X].@.L.q.z.6X;.;.I.U.U.r.r.-.*.;.s | f.r.r.q.OX4X}.x.j.;.z ; 8 ; < < , , , , o O ; 0 : < ;   < ",
"< o o o o o O   h y.r.! ].7XwX7X2XOXv.P.i.i.<X<X:XY.^.@.z +.*.@.*.z X.*.t u %.-.k.!.c.v.j.*.x 8 , < < ; ; , $ o 1 $ 4 < < ;   ; ",
"< o & . O o O   *.`.^.Q ;.MX<Xh 7X6Xr.Y.r.L.@X(.+XI.z.| +.| 9.O.+.*.z *.l l *.l O.@.r.z.j.j.s.X.u t r d p , $ O ; > 6 , < -   ; ",
"< o o o o O O   c.H.(.l   -.;.  %.O.% !.OX-X^.O.I.k.l.q.$.J #.@.l O.t l *.O.+.+.O.l X.;.j.%.c.j.u p J k q 9 : O : > 4 2 < & . < ",
", o o o o o   O @XD.L.Q     O % ;   z :X<X-XL.l.I.L.t.H.L s L #.k H u z l O.@.9.;.+.z +.%.9.9.;.+.k 9 1   O $ O + , 5 > - o . ; ",
", 1 o & 1 1   0 1XH.^.x   ; 1 8 > z :X-X/.-XH.L.-XP.#.q.3.r g L y d H j l K k r.r.+.;.x x z.;.+.9.@.1 o 1 < : o 1 0 5 > ; 1 . < ",
", o o ; ; ;   s `.D.(.8   < ; , < z.jX(.P.-X/.(.=XH.! g ! Q j s y y H H | $.H -.*.@.;.+.X.r.f.+.*.;.t . : 4 5 o o 0 4 2 ; + . ; ",
", 1 & ; & ; 1 $ 5 9 J 8 ; ; ; < @.:XaX-XH.1X-XP.Y.H.q.D 9 a H d y s k L K -.$.#.%.%.r.+.+.j.9.Q O.*.=.e   o : O 1 3 # X   X . < ",
", ; 1 & ; 1 ; ; . . . > ; e ; k +X1XtX>X+X;X;X(.H.H.F.#.a 4 3 j d s H K $.-.$.8.-.%.q.@.%.r.O.k ;.+.%.O.y a 5 . 0 0 O X o ; o < ",
", 1 ; & o ; 1 ; ; - > , 1 < s l.8XiXtX1X1XtX1X+X=XY.K.F.,.! d D | U L $.8.8.8.w.q.9.%.8.-.;.K | 9.Q O.O.3 @ 4 > % ; 3 > & - & , ",
", ; & ; ; o ; ; ; & > , < < k z.1XaXaX1XtXtX1XtXiX:X,X:X=XH.l.8.#.#.0.w.w.w.x.x.x.x.l.x.c.c.| J z.l j Q z 0 9 e o ; < X . . o ; ",
", ; o 1 ; ; 1 ; ; - < < < 0 O.k.'.;X;X-X;XtXaXaXiXiX1X>X=XY.Y.F.F.w.A.l.l.l.l.K.c.L.{.OXOX{.#.@.z.;.0 k %.J q ; < 9 0 & o . O < ",
", ; o ; o ; ; ; ; ; e t r , +.-X1X-X`.;X>XtXsXaXiX>X;X=XR.J.A.A.e.y.w.e.w.y.l.l.l.z.z.{.{.x.-.9.r.-.u s Q p a , ; 9 , 1 O O O ; ",
", ; ; ; ; ; ; & ; , r t i u 9.-X;X;X_.>X;XyXgXsXiX;X).Y.F.B.e.1.e.5.5.e.e.e.l.w.i.q.t.l.c.l.-.%.r.Q g h K h q < O , , o O . O ; ",
", ; ; ; ; ; ; ; - y L r t @.^.i.(.;X;X;X_.tXyXtX;X).J.S.B.6.>.>.<.<.>.,.2.5.w.l.e.q.2.e.t.l.-.-.@.D H k k ! g , O 5 y O O O O ; ",
", ; ; ; ; ; ; ; O Q J.3 s 2.F.y.i.1X'.`._.yXeX`.T.S.A.B.4.<.>.) ) >.) ( >.2.e.w.w.w.w.w.w.0.l.8.p L d y y #.Q ,   $ y O O O O ; ",
", ; ; ; < ; ; > O i.'.  g.{.F.+XJ.;X(.J.eXyX`.).T.J.A.e.5.1.>.>.) >.,.) >.>.e.w.w.w.l.F.k.t.l.%.h Q r 9 s L Q r , p t o O O O < ",
"e ; < ; ; ; < , 1 ! ! j AXDX4X=X`.'.(.(.yXyX;X,X).R.G.A.B.e.1.<.<.>.>.>.3.2.e.y.l.l.k.I.L.y.t.%.$.Q q y H p K u 8 0 > X o o o < ",
"< 1 1 - * ; * < , O . 9XIXAXAXwX>X).J.`.sXyXtXeX;XR.J.J.A.M.6.6.6.<.>.2.2.2.w.y.k.K.L.I.{.F.q.8.%.L a s K k L z O O , o o o o < ",
"z i i x x x x e e t +.xXFXJXzX$X-X/.Y.>XjXhXpXtX>X=XJ.F.B.6.5.<.<.) >.>.>.<.w.l.F.^.+XI.}.U.w.8.@.d d L k K $.O.z k y O O O O < ",
"f.;.;.r.;.*.s.].#X3XzXAXGXGXNX3X*X/.=XaXhXhXjXiX,XT.G.7.6.<.' <.>.T T T ( I >.2.e.u.U.@X+X}.{.w.+.d D J 3 u %.+.+.9.z O o o & < ",
"k.j.j.r.0.x.lXJXLXKXPXJXGXFXFX9XOXI.;XhXZXhX;XD.4.' ] ] ) ' ) ) ^ T Y G S N M S G ( 5.L./.+X+XI.@.K Q s K K H @.+.%.h o o & o ; ",
"P.P.P.u.:XGXIXPXJXIXJXJXJXGXxX3X].:XtXZXhXeXA.) T T G Y Y / <.R T T G N N N N N G Y <.5.P.+X+X+Xf.#. .#.).0.y Q -.%.h X * ; ; < ",
"c.z.c.z.{.DXIXKXHXJXIXGXGXSXlXK.}.@XaXUXjXT.N.' G S S S G ^ 6.<.^ ^ P S M 6 6 w A I ) 5.u.^.@X+Xl.8.2.e.1.G 0 H 8.-.J ; 1 & o < ",
"L.L.z.z.4XGXLXIXDXJXIXDXBXlXf.K.:X4XCXZX_.{ F f 4 q w M S ^ F.A.>.>.P 6 # X ; 5 2 7 f S ^ F.+X@Xc.w.q.y.R S 5 p %.y.Q         o ",
"sXaXsXsXVXLXPXJXHXAXBXBXlXv.f. X8X8XdXhXS.A.A.a y H f 6 A 7.R.G.e.e.I 5 + : r A A U ,.q.w.F.+X-XI.y.w.P.e.w : y ! (.^.*.&.+.&.*.",
"1XwXaXgXJXPXHXJXHXzXzXzXlX3XlXlX5XK.>XZXdXfX,X4.T S A A I J.rXR.V.w.>.U f 6 n S S R e.F.Y.U.+X+X{.,.Y 4.A.4 # q Q z.XXOX#XOXOX#X",
"<XwXwXgXHXJXVXdXzXBXNX9XlX5X4X$X|.V.,XZXfXtXT.V.] T T ..F.rXpXY.l.F.F.2.I G G U ..e.F.l.F.P.U.}.I.,.v N T : = 4 F %.d.&.=.a.a.h.",
"<X<X1X1XCXLXSXzX0XvX9X2X3X$X}.x.K.K.Y.yXpXpXpXrXR.G.F.R.rXsXpXR.K.K.F.l.0.1.e.V.V.G.K.I.F.F.P.I.}.w.7 S I X = q a ! s.a.d.h.h.[.",
"*XXXXX*XHXLXJXDXvX9X%X$X}.$X2Xg.8.{.Y.tXfXZXpX,XG.V.J.=XuXZXpXR.|.}.K.w.w.2.1.V.V.F.Y.}.U.F.H.U.I.1...6.D   $ p d ~ -.o.o.a.a.h.",
"<X&X@X0XPXDXVXVXvX5X%X{.{.$X5X}.{.x.K.yXhXfXrXG.C.C.V.R.CXZXrXE.G.}.{.K.2...1.C.B.B.K.}.}.U.K.U.F.1.J.,.X X @ p g F %.=.X.p.p.d.",
"<X<X:X<XVXVXSXVXdX5X$X$X$X$X$Xx.x...( pXfXeXE.W.N.R S ).jXrXm.n.1.V.G.F.P S R 1.1.1.V.K.P.U.Y.}.k.F.F.>   = @ q a J @.;.&.o.&.d.",
"<X&X&X@X<XJXLXVX9X:XOX%X9X}.f.0.f.U U eXpX_.S.N.R Y T B.C.N.N.R ] S Y T P S E ] ] ] 4.V.F.J.}.I.A.J.L   o # @ 4 a Q ! @.o.p.p.d.",
"OXXXOXOX6XvXwXVXzX4X4X5X5X$Xf.0.f.U U ;XrXR.C.R Y G >.V.A.1.] ] T S ....I S N E Y Y ' 6.6.F.}.L.S G o . ; # : 4 a Q $.%.=.p.p.a.",
":X@X@X<X-X/.wXJXvXqX0X2X5X%X{.0.9.f.w _.rXR.C.] Y Y 5.F.J.F.>.S G ( #.,.>.T N N Y E / 4.' B.).q.5 6   o : + = 5 q D Q %.=.p.&.a.",
"1X8X1X1X<X@XVXJX9X0XvX9X4XzX$Xw.x.f.# J.eXE.m.R G G _ 6.V.6.1.T G G T T T T N M E Y { 7.' N.}.H # $   o > = + 4 9 D L Q =.a.p.d.",
"7X7X7X7X<X7XVXDXlX4XvXvX2X9X{.$.A 4 # 3.rXT.S.R Y N U V T R G S V V S U U f 6 6 E Y ] 7.<.Z.K.r   o X O 3 3 # 5 q D D L @.p.p.a.",
"OXXXXXXXc.6XSXBXvX8X8X8X5X$XL.q.7 4 4 7 T._.T.M.R S U 1.V.1.C S V V S ..,. .M M E R _ [ 4.S.#.+ o > : # 5 3 % @ q d J P @.p.| p.",
"*XOXOXc.z.0XSXAXMX=XJ.H.I.t.y.! M 4 4 # L ).E.S.] { 7.G.G.B.] T Y Y / >.i.2.^ S E { ) ' 6.e.A 2 # $ 3 : $ : @ $ 9 q F $.$.&.X.&.",
"7X:X6X@X@XDXSXNXdXY.Z.7.P ` >.G G f 6 5 = A.`.S.C.N.A.J.S.u.<.R R ^ / _ >.2.>.T Y / / ] e.I r y < : 3 9 : % + $ 0 q D ! ! @.X.p.",
"<X&X&X@X:XDXJXMX@X/.A._ P 2.<.7.) 6 w 7 d q.V.J.S.S.J.T.G.B.<./ Y G ^ ) 5.e.e._ { { ] <.6.H r r p 9 $ 9 > # $ $ 5 w A J ! #.&.p.",
"7X%X%X@X7XDXPXBXF.J.Z.! ! 2.A.D./ w M 5 L f.H e.T.T.)._.J.G.V.1.' <.<.4.e.u.7.[ / / _ 5.>.H j | ;.j $ 5 : # $ : $ q a F ! #.+.=.",
"*X*X*X^.9XJXDX0XP.F.` ,.3.i.A.A.{ A F 6 w.:X@.P N.S.).;XT.S.A.B.6.4.' 7.e.Z.7._ ) / >.2.,.| | ;.[.| $ 5 = = $ $ : 9 D F Q $.+.a.",
"XXc.XXx.qXPX8X8X/.A.q.P 2.Z.Z.Z.' G ^ 6 K.8Xx.I Y / B._._.S.4.' ' ] { ' M.6.<.( I ! ` ` ,.=.g. Xg.3 5 9 = @ + + 2 9 a F ~ $.@.*.",
"&X%X&X@XNXPX>X8XI.F.{.G 7.7.Z.D.M./ / 6 H {.9X@.7 / Y ) C.S.B.6.4.[ m.[ 1.) I G G I >.! U [.3Xs.X # 5 6 5 = # # : 0 q F Q ,.8.;.",
"*X%X%X&XSXJX-X8XU.F.@XP i.A.S.Z.Z.7.<.M A D qX0X$.I G G ( I / 4.>.>.) T I I P F F I ,.A } 3X|   # @ $ @ 2 2 : + # 5 q F ! ! q.r.",
"&X6X@X:XIXGXR.4X+XK.8XI >.G.Z.[ Z.4._ S ! a 9XPX9X{.K.I.2XI.I M M M A G I  .U A A A 6 A [.cXX.  = = + X + = = = % $ 4 a P $.,.q.",
"6X-XK.dXKXDXR.8X:XY.dXR V.S.N.[ Z.7.' ~ ( 5 7XLXBX9X4X4X3X#XOXc.x. .M f A A A ,.v.v.s.x.kXnX[.# # @ @ = + = = = @ $ 4 q D ! 3.q.",
"I.C.W.CXIXDXR.0XuX|.dXC.T.D.[ [ D.' 7.~ P # 2XPXVXmX7X9XlX$X9XzXlX3X[.x. .9.g.].3X3X5XkXcXnX[.# 7 7 7 7 = @ + 2 2 : 5 6 w P ! r.",
"G.G.G.qXFXHX|.pXuX,XbXW.E.C.] Z.D.<.' _ P   ].IXDXMXzXlX9X0X9X6X9XlXlXkX#X#XOX].XX#X3XcXcXFX[.# v b v v 7 7 7 2 7 6 6 d a A ! 3.",
"E.|.,XMXvXGX|.uXuX,XIXG.m.R R Z.D._ _ 7.O.  ].LXDXMXvXzX9X&X*X@X&X*X*X3X#X].OXOX#X#X3XcXnXkXe 7 v v b b b b v v v b V A J F ! 3.",
"|.>X>XMXvXSX.XuXBXbXdXC.Y N.N.A.Z._ _ 7.J o *XIXSXBXmXNX9X&X*X6XOXOX*X6X#X X#X#X2X2XcXFXcXe   = v b b b b m m m m m m b w L ! 3.",
">X-X:X0X0XIX|.|.JXvX..1.6.4.M.M.A.>.! i.H . 2XSXNXBXNXzX9XlX9XlX9X7XlX9X#X$X%X2X2X3XcXcXp.. . = v b b b m m m C Z C C C n 4 D ! ",
"iX-XdXCXbXIX|.W.IX0XR V.S.S.A.S.D.e.) F.Q o 2XGXlXNXBXmXAXDXAXvXmXHXJXAXxXkX2X3X3X3XcX[.c e < > V Z Z Z Z C C C C C n.n.n.f h -."
};
