/* XPM */
static char *_d8178a5cb844442e98495faabd5948a8kzDfzUWMHXIWoUV[] = {
/* columns rows colors chars-per-pixel */
"64 64 40 1 ",
"  c red",
". c #FF0101",
"X c #FF0202",
"o c #FF0303",
"O c #FF0505",
"+ c #FF0707",
"@ c #FF0A0A",
"# c #FF0C0C",
"$ c #24FF00",
"% c #25FF01",
"& c #26FF02",
"* c #27FF03",
"= c #27FF04",
"- c #28FF05",
"; c #2AFF07",
": c #2BFF08",
"> c #31FF0F",
", c #32FF10",
"< c #35FF14",
"1 c #36FF15",
"2 c #37FF16",
"3 c #3BFF1B",
"4 c #3EFF1E",
"5 c #44FF25",
"6 c #46FF28",
"7 c #4DFF30",
"8 c #FF9C00",
"9 c #FF9C01",
"0 c #FF9D02",
"q c #FF9D03",
"w c #FF9E04",
"e c #FF9E05",
"r c #FF9E06",
"t c #FF9F07",
"y c #FF9F09",
"u c #FFA00B",
"i c #FFA10D",
"p c #FFA210",
"a c #FFA313",
"s c white",
/* pixels */
"                                %$$$%=-=$$$$%:<675,-%$$$$$$$$%:4",
"                                $$$$%%=%%$$$%%:<3<-=$$$$$$$$$$-<",
"                               O$$$$$$%%$$$$%%%:,:%%$$$$$$$$$%%,",
"                                $$$$$$$$$$$$$$%=--%%$$$$$$$$$%%:",
"                                $$$$$$$$$$$$$$$%%-%$$$$$$$$$$$$-",
"                                $$$$$$$$$$$$$$$%%%$$$$$$$$$$$$%-",
"                                $$$$$$$$$$$$$$$%%$$$$$$$$$$$$$%=",
"                                $$$$$$$$$$$$$$$$%$$$$$$$$$$$$$%=",
"                                $$$$$$$$$$$$$$$$%$$$$$$$$$$$$$$%",
"                                $$$$$$$$$$$$$$$$$$$$$$$$$$$$$$%%",
"                                $$$$$$$$$$$$$$$$$$$$$$$$$$$$$$$%",
"                                $$$$$$$$$$$$$$$$$$$$$$$$$$$$$$$$",
"                                $$$$$$$$$$$$$$$$$$$$$$$$$$$$$$$$",
"                                $$$$$$$$$$$$$$$$$$$$$$$$$$$$$$$$",
"                                $$$$$$$$$$$$$$$$$$$$$$$$$$$$$$$$",
"                                $$$$$$$$$$$$$$$$$$$$%$$$$$$$$$$$",
"                                $$$$$$$$$$$$$$$$$$$$$$$$$$$$$$$$",
"                                $$$$$$$$$$$$$$$$$$$$$$$$$$$$$$$$",
"                                $$$$$$$$$$$$$$$$$$$$$%$$$$$$$$$$",
"                                $$$$$$$$$$$$$$$$$$$$$$$$$$$$$$$$",
"                                $$$$$$$$$$$$$$$$$$$$$$$$$$$$$$$$",
"                                $$$$$$$$$$$$$$$$$$$$$$$$$$$$$$$$",
"                                $$$$$$$$$$$$$$$$$$$$$$$$$$$$$$$$",
"                                $$$$$$$$$$$$$$$$$$$$$$$$$$$$$$$$",
"                                $$$$$$$$$$$$$$$$$$$$$$$$$$$$$$$$",
"                                $$$$$$$$$$$$$$$$$$$$$$$$$$$$$$$$",
"                                $$$$$$$$$$$$$$$$$$$$$$$$$$$$$$$$",
"                                $$$$$$$$$$$$$$$$$$$$$%$$$$$$$$$$",
" O                              $$$$$$$$$$$$%$$$$$$$$$$$$$$$$$$$",
"         O                      $$$$$$$$$$$$$$$$$$$$$$$$$$$$$$$$",
"         OO                     $$$$$$$$$$%%%%$$$$$$$$$$$$$$$$$$",
"        O@#@O                   %$$$$$$$$$%%%%$$$$$$$$%$$$$$$$$$",
"9888888888889889qqq9998888888888ssssssssssssssssssssssssssssssss",
"9888888888888888qqqyrq8888888888ssssssssssssssssssssssssssssssss",
"8888888888888888q89q998888888888ssssssssssssssssssssssssssssssss",
"98888888888889888899y98888888888ssssssssssssssssssssssssssssssss",
"888888888888888888q9999q88888888ssssssssssssssssssssssssssssssss",
"88888888888888888899q8qq88888888ssssssssssssssssssssssssssssssss",
"8888888888888888qq9y9q8888888888ssssssssssssssssssssssssssssssss",
"8888888888888888qq9qq88888888888ssssssssssssssssssssssssssssssss",
"9888888888888888q88q888888888888ssssssssssssssssssssssssssssssss",
"8888888888888888888q888888888888ssssssssssssssssssssssssssssssss",
"88888888888888888888888888888888ssssssssssssssssssssssssssssssss",
"88888888888888888qqq888888888888ssssssssssssssssssssssssssssssss",
"8888888888888888888q888888888888ssssssssssssssssssssssssssssssss",
"888888888888888888qq888888888888ssssssssssssssssssssssssssssssss",
"88888888888888888899888888888888ssssssssssssssssssssssssssssssss",
"88888888888888888898888888888888ssssssssssssssssssssssssssssssss",
"888888888888888888q8888888888888ssssssssssssssssssssssssssssssss",
"8888888888888888q988888888888888ssssssssssssssssssssssssssssssss",
"88888888888888888888888888888888ssssssssssssssssssssssssssssssss",
"88888888888888888888888888888888ssssssssssssssssssssssssssssssss",
"8888888888888888qq88888888888888ssssssssssssssssssssssssssssssss",
"8888888888888888qq88888888888888ssssssssssssssssssssssssssssssss",
"8888888888888888qqq8888888888888ssssssssssssssssssssssssssssssss",
"8888888888888888qqq8888888888888ssssssssssssssssssssssssssssssss",
"88888888888888888888888888888888ssssssssssssssssssssssssssssssss",
"88888888888888888888888888888888ssssssssssssssssssssssssssssssss",
"888888q899q888888888888888888888ssssssssssssssssssssssssssssssss",
"888888qq998888888888888888888888ssssssssssssssssssssssssssssssss",
"88888889y99988898888888888888888ssssssssssssssssssssssssssssssss",
"888888qqyy9988888888888888888888ssssssssssssssssssssssssssssssss",
"8888q8qyyyr988888888888888888888ssssssssssssssssssssssssssssssss",
"8888qqqyaar988888888888888888888ssssssssssssssssssssssssssssssss"
};
