/* XPM */
static char *_5417c75b8214d92a6aa1359ffa754c3rXeUSts9ZuzQZJNy[] = {
/* columns rows colors chars-per-pixel */
"64 64 185 2 ",
"   c #FF0000",
".  c #F60609",
"X  c #F2090E",
"o  c #FF0B0B",
"O  c #EB0D14",
"+  c #E4111B",
"@  c #DA1725",
"#  c #C5253A",
"$  c #BA2C45",
"%  c #A63959",
"&  c #B1324E",
"*  c #9E3E62",
"=  c #94446B",
"-  c #894B76",
";  c #24FF00",
":  c #22FB0D",
">  c #22F911",
",  c #20F51C",
"<  c #21F716",
"1  c #1FF126",
"2  c #1CEA3B",
"3  c #1DED33",
"4  c #1EEE2E",
"5  c #17DE5B",
"6  c #1AE549",
"7  c #18E054",
"8  c #16DB63",
"9  c #14D76D",
"0  c #14D475",
"q  c #FF9C00",
"w  c #F49C0B",
"e  c #FF9F09",
"r  c #EC9C13",
"t  c #E59D1A",
"y  c #F09C10",
"u  c #FFA10C",
"i  c #FFA312",
"p  c #D89D27",
"a  c #C39D3D",
"s  c #CA9E37",
"d  c #BC9E43",
"f  c #B49E4B",
"g  c #AC9E53",
"h  c #A49E5C",
"j  c #979E68",
"k  c #8A9F75",
"l  c #859F7B",
"z  c #A09E60",
"x  c #4F19B1",
"c  c #771388",
"v  c #73598C",
"b  c #65629A",
"n  c #546DAB",
"m  c #4676B9",
"M  c #2A1ED5",
"N  c #1421EB",
"B  c #1920E6",
"V  c #0B24F4",
"C  c #0124FE",
"Z  c #012BFE",
"A  c #0C2CF3",
"S  c #0134FE",
"D  c #003CFF",
"F  c #0C39F3",
"G  c #3C7CC3",
"H  c #0042FF",
"J  c #014BFF",
"K  c #0B40F4",
"L  c #0053FF",
"P  c #015CFE",
"I  c #0065FF",
"U  c #006CFF",
"Y  c #0074FF",
"T  c #007BFF",
"R  c #347DFF",
"E  c #3D77FF",
"W  c #7B4AFF",
"Q  c #6759FF",
"!  c #7351FF",
"~  c #4A6EFF",
"^  c #5268FF",
"/  c #4571FF",
"(  c #BB1DFF",
")  c #8D3EFF",
"_  c #9836FF",
"`  c #A72BFF",
"'  c #B621FF",
"]  c #A030FF",
"[  c #CF1DE3",
"{  c #D317E8",
"}  c #CF0FFF",
"|  c #DD0AF5",
" . c #DD06FE",
".. c #D50BFF",
"X. c #D808FF",
"o. c #C318FF",
"O. c #CA12FF",
"+. c #E400FF",
"@. c #8544FF",
"#. c #8B40FF",
"$. c #0ABCB6",
"%. c #789F87",
"&. c #65A09A",
"*. c #53A0AC",
"=. c #5AA0A5",
"-. c #43A0BC",
";. c #4EA0B1",
":. c #10CC8C",
">. c #11CF84",
",. c #0FC898",
"<. c #10CA90",
"1. c #0CC0AC",
"2. c #0DC3A5",
"3. c #2889D7",
"4. c #3382CC",
"5. c #07B4CD",
"6. c #08B6C8",
"7. c #09B9C0",
"8. c #05AFDD",
"9. c #06B2D4",
"0. c #35A1CA",
"q. c #2CA1D3",
"w. c #23A1DC",
"e. c #1F8FE1",
"r. c #1794E8",
"t. c #0083FF",
"y. c #008AFF",
"u. c #008EFF",
"i. c #1D8EFF",
"p. c #0C9AF3",
"a. c #0093FF",
"s. c #0099FF",
"d. c #009EFF",
"f. c #059EFF",
"g. c #069EF9",
"h. c #0B9AFF",
"j. c #1394FF",
"k. c #1991FF",
"l. c #228AFF",
"z. c #2A84FF",
"x. c #3080FF",
"c. c #03A9ED",
"v. c #04ACE3",
"b. c #14A2EB",
"n. c #1BA1E4",
"m. c #02A6F4",
"M. c #0CA2F3",
"N. c #01A0FF",
"B. c #03A3FC",
"V. c #0BA6FF",
"C. c #13A9FF",
"Z. c #1CACFF",
"A. c #23AFFF",
"S. c #2CB2FF",
"D. c #26B0FF",
"F. c #35B5FF",
"G. c #3DB8FF",
"H. c #43BAFF",
"J. c #4BBDFF",
"K. c #50BFFF",
"L. c #5CC4FF",
"P. c #53C0FF",
"I. c #69C8FF",
"U. c #72CCFF",
"Y. c #7ACEFF",
"T. c #7ED0FF",
"R. c #84D2FF",
"E. c #8CD5FF",
"W. c #95D9FF",
"Q. c #9BDBFF",
"!. c #A4DEFF",
"~. c #AAE0FF",
"^. c #B4E4FF",
"/. c #BCE7FF",
"(. c #BFE8FF",
"). c #C3E9FF",
"_. c #CBECFF",
"`. c #D1EEFF",
"'. c #DAF2FF",
"]. c #D6F0FF",
"[. c #E4F5FF",
"{. c #EEF9FF",
"}. c #E9F7FF",
"|. c #F3FBFF",
" X c #FFFFFF",
/* pixels */
"C C C C C C C V B B N C C C C C C C C C C C C C C C C C V M x c +.+.+.+.+.+.+.+.+.+.+.+.+.+.+.+.+.+.+.+.+.+.+.+.+.+.+.+.+.+.+.+.",
"C C C C C C C V N N V C C C C C C C C C C C C C C C C C C N M x +.+.+.+.+.+.+.+.+.+.+.+.+.+.+.+.+.+.+.+.+.+.+.+.+.+.+.+.+.+.+.+.",
"C C C C C C C V N N V C C C C C C C C C C C C C C C C C C V B M +.+.+.+.+.+.+.+.+.+.+.+.+.+.+.+.+.+.+.+.+.+.+.+.+.+.+.+.+.+.+.+.",
"C C C C C C C C N N V C Z Z Z Z Z Z Z Z C C C C C C C C C C V N +.+.+.+.+.+.+.+.+.+.+.+.+.+.+.+.+.+.+.+.+.+.+.+.+.+.+.+.+.+.+.+.",
"C C C C C C C V V N F J J L L L L L J J H D S Z Z Z C C C C V C +.+.+.+.+.+.+.+.+.+.+.+.+.+.+.+.+.+.+.+.+.+.+.+.+.+.+.+.+.+.+.+.",
"C C C C C C C V N F P t.y.y.y.u.u.u.t.t.T Y I P L J H S S Z C C +.+.+.+.+.+.+.+.+.+.+.+.+.+.+.+.+.+.+.+.+.+.+.+.+.+.+.+.+.+.+.{ ",
"C C C C C C C C A F T d.N.d.d.N.d.d.d.d.d.d.s.a.y.t.T U P J H D } .. . . .+.+.+.+.+.+.+.+.+.+.+.+.+.+.+.+.+.+.+.+.+.+.+.+.+.+.[ ",
"C C C C C C C V A F Y a.s.s.s.s.d.d.s.d.d.N.N.N.d.d.s.s.u.t.T U ! @._ _ ` ` ' o.O.} ..X.X.+.+.+.+.+.+.+.+.+.+.+.+.+.+.+.+.+.+.[ ",
"C C C C C C C V V A J U Y Y Y Y T Y T t.y.a.a.a.s.d.N.N.N.d.d.a.k.l.x.E / / ^ Q ! W #.) ` ' o.} ..+.+.+.+.+.+.+.+.+.+.+.+.+.| [ ",
"C C C C C C C V V V Z S D D D H H H H J J P I U T t.a.a.s.d.d.N.N.f.f.h.h.f.h.j.j.k.l.x.E ^ Q W _ ( | +.+.+.+.+.+.+.+.+.+.+.| [ ",
"C C C C C C C C V V C Z C Z Z C C C Z C Z Z S D H J L I Y T y.a.j.h.h.h.f.N.f.f.f.N.d.f.j.j.j.i.x.! o.+.+.+.+.+.+.+.+.+.+.+.| [ ",
"C C C C C C C C V C C C C C C C C C C C C C C C C Z Z S D J L P Q ^ / / R z.l.i.k.j.h.h.f.B.N.N.V.x.#.+.+.+.+.+.+.+.+.+.+.+.| [ ",
"C C C C C C C C C V C C C C C C C C C C C C C C C C C C C Z Z S o.' ` ` _ ) ) @.W Q ^ E z.j.f.N.B.l.#...+.+.+.+.+.+.+.+.+.+.| [ ",
"C C C C C C C C V V C C C C C C C C C C C C C C C C C C C C C C +. . .X.X.X.....} ' _ Q R j.f.N.f.R _ X.+.+.+.+.+.+.+.+.+.+.+.{ ",
"C C C C C C C V C V C C C C C C C C C C C C C C C C C C C C C C +.+.+.+.+.+.+. .O.` Q R j.f.B.h.z.! o.+.+.+.+.+.+.+.+.+.+.+.| | ",
"C C C C C C C C C C C C C C C C C C C C C V C C C C C C C C C C +.+.+.+.+.+...( #.~ l.h.f.f.i./ @.' X.+.+.+.+.+.+.+.+.+.+.+.+.| ",
"                                                                ; ; ; ; : 1 7 <.6.c.B.m.c.9.<.6 , : ; ; ; ; ; ; ; ; ; ; ; ; ; ; ",
"                                                                ; : > 1 6 >.$.8.m.m.m.v.$.9 3 : ; ; ; ; ; ; ; ; ; ; ; ; ; ; ; ; ",
"                                                            X O 1 2 8 <.7.v.m.B.B.c.6.:.6 , : ; ; ; ; ; ; ; ; ; ; ; ; ; ; ; ; ; ",
"                                                  . X O @ # & = :.1.5.c.m.B.m.c.9.2.8 4 > ; ; ; ; ; ; ; ; ; ; ; ; ; ; ; ; ; ; ; ",
"                                        . X O @ # $ % = v n G 3.v.m.m.N.m.m.8.$.0 6 < : ; ; ; ; ; ; ; ; ; ; ; ; ; ; ; ; ; ; ; ; ",
"                                    O @ $ % - v n m 4.3.r.p.p.g.m.m.m.c.9.$.0 6 1 : ; ; ; ; ; ; ; ; ; ; ; ; ; ; ; ; ; ; ; ; ; ; ",
"                                . @ * b m 3.r.p.p.g.g.p.g.g.g.p.v.9.$.2.9 6 1 < ; : : ; : ; ; ; ; ; ; ; ; ; ; ; ; ; ; ; ; ; ; ; ",
"                                @ - 4.p.g.N.B.N.d.g.g.p.p.r.3.G 2.<.0 5 6 6 2 2 3 2 2 3 3 1 1 < > : ; ; ; ; ; ; ; ; ; ; ; ; ; ; ",
"                              . $ m p.B.N.N.N.B.N.g.g.p.r.e.3.G 7.$.1.1.1.1.1.1.2.2.1.1.2.,.:.0 8 2 , : ; ; ; ; ; ; ; ; ; ; ; ; ",
"                              . # m g.g.N.N.B.B.B.g.g.g.g.g.p.p.m.m.m.c.c.m.m.m.c.m.m.m.c.c.c.v.9.1.9 3 : ; ; ; ; ; ; ; ; ; ; ; ",
"                              . @ = m 3.3.3.3.e.e.r.r.p.p.p.p.p.m.m.m.m.m.m.m.B.m.m.B.N.m.m.N.m.N.c.9.>.3 : ; ; ; ; ; ; ; ; ; ; ",
"                                . + $ % % * * = = - v b n m m G 9.9.9.5.9.9.9.9.5.5.5.9.8.9.v.c.m.B.m.5.9 , ; ; ; ; ; ; ; ; ; ; ",
"                                    . . X X X O O + @ @ # $ & & 5 5 5 5 7 5 8 5 5 5 5 8 8 8 0 ,.5.c.m.c.2.3 : ; ; ; ; ; ; ; ; ; ",
"                                                      . . . . . : : : : > > > : > : : : > > < 3 0 5.m.m.6.7 : ; ; ; ; ; ; ; ; ; ",
"                  o                                             ; ; ; ; ; ; ; ; ; ; ; ; ; ; ; : 2 1.m.N.8.8 > ; ; ; ; ; ; ; ; ; ",
"                  o o o                                         ; ; ; ; ; ; ; ; ; ; ; ; : ; ; ; 1 ,.c.B.v.9 > ; ; ; ; ; ; ; ; ; ",
"q q q q q q q q q q q q q q q q q q q q e q q q q q q q q q q q  X X X X X X X X X X X X X X X X'.U.C.B.A.W.}. X X X X X X X X X",
"q q q q q q q q q q q q q q q q q q q q e q q q q q q q q q q q  X X X X X X X X X X X X X X X X].U.C.N.D.W.{. X X X X X X X X X",
"q q q q q q q q q q q q q q q q q q q e q q q q q q q q q q q q  X X X X X X X X X X X X X X X X_.L.C.B.D.Q.{. X X X X X X X X X",
"q q q q q q q q q q q q q q q q q q q q e q q q q q q q q q q q  X X X X X X X X X X X X X X X|.^.H.V.V.F.~.|. X X X X X X X X X",
"q q q q q q q q q q q q q q q q q q q e e q q q q q q q q q q q  X X X X X X X X X X X X X X X{.Q.S.B.V.P.(.|. X X X X X X X X X",
"q q q q q q q q q q q q q q q q q q q q q q q q q q q q q q q q  X X X X X X X X X X X X X X X[.R.Z.B.C.I.]. X X X X X X X X X X",
"q q q q q q q q q q q q q q q q q q q e q q q q q q q q q q q q  X X X X X X X X X X X X X X X`.I.C.B.D.E.}. X X X X X X X X X X",
"q q q q q q q q q q q q q q q q q q q q q q q q q q q q q q q q  X X X X X X X X X X X X X X|.^.H.V.V.F.~.|. X X X X X X X X X X",
"q q q q q q q q q q q q q q q q q q q e q q q q q q q q q q q q  X X X X X X X X X X X X X X[.Q.S.B.V.K.).|. X X X X X X X X X X",
"q q q q q q q q q q q q q q q q q q q q q q q q q q q q q q q q  X X X X X X X X X X X X X X'.U.C.N.C.U.'. X X X X X X X X X X X",
"q q q q q q q q q q q q q q q q q q q q q q q q q q q q q q q q  X X X X X X X X X X X X X X).P.V.V.D.W.}. X X X X X X X X X X X",
"q q q q q q q q q q q q q q q q q q e q q q q q q q q q q q q q  X X X X X X X X X X X X X|.!.F.V.V.H.^.|. X X X X X X X X X X X",
"q q q q q q q q q q q q q q q q q q q q q q q q q q q q q q q q  X X X X X X X X X X X X|.'.T.A.B.C.I.`. X X X X X X X X X X X X",
"q q q q q q q q q q q q q q q q q q e q q q q q q q q q q q q q  X X X X X X X X X X X{.`.Q.H.C.B.D.E.[. X X X X X X X X X X X X",
"q q q q q q q q q q q q q q q q q q q q q q q q q q q q q q q q  X X X X X X X|.|.[.).!.U.G.C.B.V.H.^.|. X X X X X X X X X X X X",
"q q q q q q q q q q q q q q q q q q q q q q q q q q q q q q e e  X|.|.|.{.[.].(.!.R.L.F.Z.V.V.B.Z.Y.`. X X X X X X X X X X X X X",
"q q q q q q w r t t r y u w q q e e w q w w w w w w y r r t p p _.(.^.Q.W.R.U.P.F.Z.C.V.V.B.V.S.U.).|. X X X X X X X X X X X X X",
"q q q q q w p g k k j h f d a a a s a a d f f g h j k j k %.&.&.P.K.G.F.D.Z.C.V.B.B.B.V.C.S.P.R.).|. X X X X X X X X X X X X X X",
"q q q q q t h -.w.r.w.0.-.*.;.*.=.=.*.;.-.-.-.0.0.w.w.w.n.b.M.b.C.V.V.B.B.B.B.V.V.V.Z.G.I.E.^.[.|. X X X X X X X X X X X X X X X",
"q q q q q p k 3.g.d.B.M.M.M.M.m.M.M.b.M.p.M.M.m.B.B.B.g.N.m.N.m.B.V.V.V.V.Z.A.S.G.I.R.~._.[.|. X X X X X X X X X X X X X X X X X",
"q q q q q r g =.q.r.M.M.M.M.m.g.B.M.M.B.B.M.M.p.M.M.r.b.n.n.n.w.F.G.G.J.L.Y.E.!.^._.}.{. X X X X X X X X X X X X X X X X X X X X",
"q q q q q w t a j %.&.;.-.0.q.q.q.q.0.0.0.-.-.;.*.=.&.%.l k k j !.~.^.(._.'.}.{.|. X X X X X X X X X X X X X X X X X X X X X X X",
"q q q q q q q w r p s a f g h j h h h h g g d d a s p p t t r r |.|.|.|. X X X X X X X X X X X X X X X X X X X X X X X X X X X X",
"q q q q q q q q q u q e w w y w r y w r w w w w e q q w q q q q  X X X X X X X X X X X X X X X X X X X X X X X X X X X X X X X X",
"q q q q q q q q q q q q q q q q q q q q q q q q q q q q q q q q  X X X X X X X X X X X X X X X X X X X X X X X X X X X X X X X X",
"q q q q q q q q q q q q q q q q q q q q q q q q q q q q q q q q  X X X X X X X X X X X X X X X X X X X X X X X X X X X X X X X X",
"q q q q q q q q q q q q q q q q q q q q q q q q q q q q q q q q  X X X X X X X X X X X X X X X X X X X X X X X X X X X X X X X X",
"q q q q q q q q q q q q q q q q q q q q q q q q q q q q q q q q  X X X X X X X X X X X X X X X X X X X X X X X X X X X X X X X X",
"q q q q q q q q e q q q q q q q q q q q q q q q q q q q q q q q  X X X X X X X X X X X X X X X X X X X X X X X X X X X X X X X X",
"q q q q q q q e u e e q q q q q q q q q q q q q q q q q q q q q  X X X X X X X X X X X X X X X X X X X X X X X X X X X X X X X X",
"q q q q q q q q u u q q q q q q q q q q q q q q q q q q q q q q  X X X X X X X X X X X X X X X X X X X X X X X X X X X X X X X X",
"q q q q q q q u i u u q q q q q q q q q q q q q q q q q q q q q  X X X X X X X X X X X X X X X X X X X X X X X X X X X X X X X X"
};
