/* XPM */
static char *_063d73903924183d05766dfbcea5bdaIAX5N9ku7ByRgyMu[] = {
/* columns rows colors chars-per-pixel */
"64 64 253 2 ",
"   c #000101",
".  c #060A0A",
"X  c #090C12",
"o  c #0B1418",
"O  c #161819",
"+  c #14100D",
"@  c #28120A",
"#  c #251C1A",
"$  c #311311",
"%  c #1C221C",
"&  c #23241E",
"*  c #2A251D",
"=  c #37261C",
"-  c #2C311D",
";  c #0D1822",
":  c #1B1D24",
">  c #151B25",
",  c #271D27",
"<  c #3B1E23",
"1  c #1B2323",
"2  c #1C2529",
"3  c #242424",
"4  c #2A2424",
"5  c #242A24",
"6  c #2B2A25",
"7  c #24242A",
"8  c #2B242A",
"9  c #262A2B",
"0  c #2B2A2B",
"q  c #3C2623",
"w  c #382827",
"e  c #38342A",
"r  c #252631",
"t  c #393835",
"y  c #302D33",
"u  c #4C1E0E",
"i  c #49271B",
"p  c #552A1A",
"a  c #59341C",
"s  c #693919",
"d  c #6D3316",
"f  c #432523",
"g  c #452A23",
"h  c #4A2C24",
"j  c #442A2A",
"k  c #4B2A2B",
"l  c #492528",
"z  c #522B25",
"x  c #5B2B24",
"c  c #532B2A",
"v  c #5C2C2A",
"b  c #562527",
"n  c #463528",
"m  c #5A3628",
"M  c #462A31",
"N  c #463A37",
"B  c #573333",
"V  c #642C27",
"C  c #643423",
"Z  c #6B3624",
"A  c #6C3C25",
"S  c #673829",
"D  c #753928",
"F  c #743B31",
"G  c #6A342F",
"H  c #411D29",
"J  c #57411E",
"K  c #77451C",
"L  c #69411B",
"P  c #574739",
"I  c #53442F",
"U  c #684226",
"Y  c #73432C",
"T  c #784628",
"R  c #7A542A",
"E  c #6A4A36",
"W  c #794934",
"Q  c #795438",
"!  c #68553B",
"~  c #78633C",
"^  c #3C3B40",
"/  c #394652",
"(  c #4B4846",
")  c #584B46",
"_  c #555454",
"`  c #6C584F",
"'  c #786657",
"]  c #70654F",
"[  c #505C66",
"{  c #5D686D",
"}  c #676667",
"|  c #747170",
" . c #5D654E",
".. c #833E2E",
"X. c #864A2A",
"o. c #86552B",
"O. c #884B35",
"+. c #885736",
"@. c #965938",
"#. c #97542D",
"$. c #A65539",
"%. c #8B6336",
"&. c #976539",
"*. c #9B753C",
"=. c #93622A",
"-. c #A46B3C",
";. c #A77334",
":. c #855A47",
">. c #945943",
",. c #896548",
"<. c #996946",
"1. c #9C7243",
"2. c #99774B",
"3. c #896854",
"4. c #9A7655",
"5. c #906E53",
"6. c #A86746",
"7. c #A57949",
"8. c #B57B4C",
"9. c #A87955",
"0. c #B37254",
"q. c #907974",
"w. c #A97D64",
"e. c #B47E67",
"r. c #A35644",
"t. c #7C8276",
"y. c #AC843F",
"u. c #9D8551",
"i. c #A7844A",
"p. c #AB8859",
"a. c #B38759",
"s. c #B59256",
"d. c #958976",
"f. c #A98A65",
"g. c #B88A65",
"h. c #B89769",
"j. c #AC8973",
"k. c #B89879",
"l. c #AF9071",
"z. c #BDA476",
"x. c #BBA46D",
"c. c #C89354",
"v. c #C69669",
"b. c #C79C77",
"n. c #CA8F69",
"m. c #C6A97A",
"M. c #CFA974",
"N. c #7B8184",
"B. c #988C88",
"V. c #91908F",
"C. c #A49696",
"Z. c #B79B96",
"A. c #B09386",
"S. c #BBA788",
"D. c #B7A998",
"F. c #AE9CA6",
"G. c #A7A8A9",
"H. c #B8A8A7",
"J. c #B7B5AD",
"K. c #AAA9B4",
"L. c #B5ACB7",
"P. c #B8B5BA",
"I. c #AAB5BC",
"U. c #999D9E",
"Y. c #C69D8F",
"T. c #C6A886",
"R. c #C9B58A",
"E. c #C8AA95",
"W. c #CDB493",
"Q. c #C9B797",
"!. c #D2B897",
"~. c #D3AE8C",
"^. c #CAB9A6",
"/. c #D4BBA7",
"(. c #C7BBB8",
"). c #C9AFA8",
"_. c #E7AA8E",
"`. c #BEC5B8",
"'. c #D1C299",
"]. c #D6C7AC",
"[. c #C6C2B7",
"{. c #D4C6B6",
"}. c #D1C6AA",
"|. c #E7CEB0",
" X c #ECD3A5",
".X c #BBBCC4",
"XX c #BCBCCB",
"oX c #B9B6C5",
"OX c #B5B3C8",
"+X c #C2BCC5",
"@X c #C4BDCC",
"#X c #C4B8C8",
"$X c #C6BDD2",
"%X c #BBC2C7",
"&X c #BDC3D3",
"*X c #C3C2C4",
"=X c #C4C4CC",
"-X c #CAC5CC",
";X c #C5CACD",
":X c #CBCBCD",
">X c #CAC7C3",
",X c #D5CAC7",
"<X c #CFD1CA",
"1X c #D8D4CA",
"2X c #C5C5D3",
"3X c #CCC4D3",
"4X c #C5CBD3",
"5X c #CCCCD4",
"6X c #CAC5DA",
"7X c #CDCBDA",
"8X c #C5CBDA",
"9X c #D2CDD4",
"0X c #D2CDDA",
"qX c #D5CAD7",
"wX c #CCD2D5",
"eX c #CED3DB",
"rX c #CCD8DA",
"tX c #D3D3D4",
"yX c #DBDAD6",
"uX c #D4D4DB",
"iX c #DAD5DC",
"pX c #D5DADC",
"aX c #DCDCDD",
"sX c #D6D8D6",
"dX c #E8D7CA",
"fX c #E1DDDD",
"gX c #E3D9D3",
"hX c #EDD5CA",
"jX c #DDE1DC",
"kX c #D7E1DC",
"lX c #E1E1DD",
"zX c #E8E4D5",
"xX c #F6EDD3",
"cX c #C9CCE3",
"vX c #CDD7E3",
"bX c #D4D4E1",
"nX c #DBD5E2",
"mX c #D4DAE2",
"MX c #DCDCE1",
"NX c #DADDEB",
"BX c #D7D6E8",
"VX c #E2DDE2",
"CX c #E1DFEA",
"ZX c #DDE1E2",
"AX c #D9E1E8",
"SX c #DFE6F6",
"DX c #E3E2E2",
"FX c #EBEBED",
"GX c #E7E7E8",
"HX c #E9EBF3",
"JX c #FEFEFE",
"KX c #F4F6F9",
"LX c #F0EEFA",
/* pixels */
"pXlXmXZXMXZXMXfXMXlXiXjXfXyXlXDXMXMXMXMXVXZXfXaXMXVXiXDXDXZXtXbX5X6XsXGXFXfXlXlXjXfXlXjXjXMXVXVXjXfXaXfXaXMXfXfXMXMXDXaXfXfXMXfX",
"MXaXmXZXDXfXZXMXfXaXaXlXlXlXDXVXaXfXlXaXVXkXaXZXkXlXGXaXkX;XqXiX=X`.U.[.<XsXFXKXKXFXDXVXMXMXfXlXDXDXaXfXaXaXlXyXaXfXMXMXfXsXMXjX",
"jXaXZXaXpXDXaXpXaXZXDXMXaXDXyXMXMXaXfXjXfXaXDXlXaXuXGXaX`.t.q.' ] ` ) _  .] t.| J.rXFXFXMXjXkXaXFXGXiXaXZXVXMXDXfXfXaXjXfXfXlXaX",
"iXaXfXtX,XtX,X>XpXaXfXtX;X<XtX;XiXZXfXpX>XfXsX:XMXwXJ.G.C.' ] | q = B I ] ! + + + t | J.GXlXVXKXzXlXFXaXfXaXZXMXVXMXVXMXVXMXaXyX",
"aXjXkXrX<XtXiX:XtXaXzXtX[.<XaX=XaXaXaXyX-XtX;X*XFX(.8 + q._ 6 B.`  .B.Z.J.d.] ) = @ O - V.uXKXyXO } JXFXaXlXfXyXaXaXfXaXMXMXMXaX",
"pXkXMXtX`.pXtX;XiXMXMXiX*XuXtXsXDXiXfXsX*XsXtXMXsX_   } U.e B.(.}.zXzXfX1XdXzX|.}.5.= + @ C.:X3   . | JXFXaXlXfXaXfXlXkXaXVXMXMX",
"MXjXjXpXuXAXyXyXjXkXMXfXtXMXmXaXaXaXlXjXiXMXKX{.N + 3 N t ) dXxXgX1X1X{.}.{.1X1XgXdXl.* . e y X y %   | JXFXaXDXlXaXaXlXfXfXfXfX",
"pXaXaXMXjXZXjXlXlXVXfXDXDXaXaXlXVXDXlXjXVXLXtXe   O 7 + + . ( ].|.).E.Z.l.k.k.S.E.}.|.h.e o O 8 1 6 ,   | JXDXaXVXaXMXVXlXfXfXjX",
"yXnXfX<X<XiXrX9XlXaXtX1XwXlXtXtXDXDXtXtX1XaXV.{ e } r _ N.^   N ~.T.j.j.f.j.k.k.k.h.R.T.y > 7 % 1 & 1 ,   } GXGXfXaXlXlXMXMXfXDX",
"aXMXMX9X*X<X;X;XaX5XwXsX=XlXsXsXDX5XtXfX<XJ.V.U.N } t U.G.( O X N W./.S.S.E.).Q.D.].z.8 o 6 , 4 5 4 8 9   ( FXGXVXaXMXaXMXfXlXaX",
"yXzXaX5X`.eX0X:X2X9XDXpX*XgXqXqXtX=XGXuX[.F.G.| , | ( } J.` + 1 X ) |.hX^.^./.).hX}.0 X 6 4 8 5 3 9 4   _ JXFXzXDXfXMXaXVXfXfXfX",
"aXpXpXiX0XVXaXaXiXaXDXaXsXfXaX1XaXyXGXiX>X] t ( 1 ( y r ( 7 % 3 7 . ( ~.~.k.g.k.j.0 X 0 6 5 7 9 8 1   _ JXKXiXMXfXfXjXjXVXfXlXaX",
"pXMXaXaXZXaXaXZXlXMXiXlXGXjXlXVXfXlXaXCXD.J + o 0 O + 7 o , 9 3 7 % X w 6.6.#.E 4 > < 5 0 5 9 * * O  .KXLXyXDXaXyXlXDXaXMXaXVXyX",
"pXpXnXMXaXaXjXaXlXlXaXfXVXMXVXaXlXlXVXsXd.q O % n 4.N o 5 9 9 2 0 3 8 o 4 O.D O O , 8 0 5 5 & 3 o # +XKXaXZXMXZXZXMXVXMXVXfXaXaX",
"aXiXaXiXiXMXaXaXfXjXfXVXfXfXaXVXfXmXZX,X] , 1 ; n ~./.6 O 6 4 , 3 4 4 3 : w w 3 3 7 3 7 1 % 7 5 e . q.KXAXkXjXlXfXaXaXfXjXaXaXjX",
"MXMXjXaXaXaXVXlXaXaXaXMXaXMXlXMXaXnXVXH.I O % % ~ R.g.S 3 4 4 4 & 1 2 8 7 > 1 8 4 7 7 4 3 9 > h :.+ _ LXDXyXfXfXfXfXaXaXMXjXVXaX",
"5XtXtXbXaXVXlXVXlXlXlXaXjXyXfXZXaXCXmXC.I & : # w.h.d Z x 8 3 & 7 2 & 4 3 & 8 , 8 3 7 & 7 8 4 H Q , t jXGXyXMXDXaXfXMXaXjXfXVXyX",
"0XtX:XeX5X:XwXuXsXtXiXpXaXaXDXZXfXGXvXV.n 1 : , 9.<.x z z z 6 8 9 5 3 5 6 4 1 2 r * 9 2 7 6 p < E P O <XHXjXpXjXfXfXZXjXaXlXlXMX",
"fXDXDXMXMXuXiXuXtX9XwXrXsX0XuXiX5XiX9Xd.= O o N 9.A h z c = 5 9 0 3 8 r w , 1 * 8 4 4 7 4 9 < k G ! . G.KXpXaXkXZXDXaXjXVXMXVXjX",
"iXuXMXnXuXMXMXaXfXGXVXMXVXaXsXfXtX5X,X5.$ & O ! 9.m g j 6 7 5 5 * 3 9 8 , 8 6 8 3 3 , 3 3 : o # i ,.o N.JXjXZXaXZXaXaXyXZXaXVXfX",
"nXaXaXMXaXaXaXjXDXMXaXaXfXlXDXVXVXVXtX' O 7 , ,.<.p $ + o o 3 3 & 4 3 8 4 8 4 1 3 5 3 7 8 4 M ` 4.E.N } KXaXaXjXZXpXfXlXaXVXjXaX",
"pXaXbXVXnXuXMXMXpXDXaXaXVXfXfXfXMXBX-X) O % : 4.f.4.,.] P E B : 7 8 8 7 4 1 2 3 6 y 3 1 , >.E.!.E.hX} V.KXaXyXaXMXpXZXjXMXMXlXiX",
"iXVXMXnXVXfXmXpXpXpXkXaXaXMXaXfXpXGX>Xn # % 0 A.E.~.M.~._.g.e : 2 2 7 7 2 1 3 7 9 7 7 * O ) /./.)./.Z.K.HXVXMXkXlXaXmXaXMXkXpXpX",
"aXyXaXaXmXaXpXpXaXjXaXiXMXaXMXjXMXAX+Xt n # ( W.~.T.n.M.k.8 ; 8 3 , 7 0 7 3 5 9 7 , 4 , , o N ~.Y.Y.E.C.<XpXrXuXuXpXnXMXDXDXaXlX",
"iXlXiXnXaXaXpXuXaXMXaXpXjXjXyXkXaXNXqXN # + ` ~.A.k.n.e.8 o 8 8 4 8 4 4 3 2 9 5 3 3 7 9 5 7 X e n.n.Y.d.P.NXiXtXbXuXbXiXtXwXpXaX",
"pXnXuXtXbXpXiXpXMXaXpXaXaXkXZXZXmXCXMX( @ # ) T.g.g.9.7 O 0 8 # 7 * , 7 % 8 3 1 6 5 5 7 7 6 * X M 0.b.3.P.HXMXaXVXMXMXfXpXiXmXuX",
"iXMXpXiXMXbXmXaXaXsXpXaXiXpXmXZXjXMXLX| @ i P g.n.0., o 5 7 8 6 3 7 , ; B W m w 7 8 7 4 7 5 4 5 O f b.<.G.HXmXaXfXjXaXaXjXZXaXiX",
"uXbXnXnXiXaXMXVXaXaXaXaXiXMXaXiXpXbXZXV.$ i h v.w.4 o 8 5 3 4 8 4 2 o ) >.x F B 3 , 7 5 3 4 5 3 3 O N <.H.NXnXmXpXaXaXaXjXkXyXlX",
"bXbXnXMXiXbXpXnXuXuXnXVXMXpXjXfXMXuXaXG.Y x c ,.0 ; w 4 3 5 4 4 , > I <.w : , , # : 7 3 8 , 4 3 8 7 . w (.AXmXkXpXMXZXaXjXaXjXZX",
"iXuXuXMXbXpXuXbXpXpXpXpXuXuXpXaXuXuX<X`.u.Z f 1 > 9 0 * 4 0 3 7 > j O.4 > w 8 * h B 7 % * 5 2 , 8 7 5 X ( iXHXkXaXmXMXaXMXpXMXaX",
"uXbXuXuXuXnXmXbXpXaXpXrXpXrXrXeXuXiX;X`.j.u 2 1 3 7 , 3 r & 2 ; n U ; 7 V D V x D O.Y 5 1 - 4 6 6 6 1 7   ( FXmXpXeXuXlXMXaXsXsX",
"uXuXMXaXsXuXnXiXiX7XpXpXpXpXnXuXtXuX%XoXA.b 1 2 & 8 , 8 9 3 O e X.z , v C z g l H i A U 7 1 3 5 5 3 6 :   { MXCXbXmXpXMXnXaXaXpX",
"uXuXnXnXuXuX0XuXuXuXpXbXuXMXbXtX9XfX#XoX(.O.d j : 7 , , 7 ; w #.Z b G v v f 8 8 4 f i Z G # 1 5 3 9 #   N.LXuXpXpXpXaXmXaXMXkXMX",
"uXnXbX0X0XuXuXrXuXuXiXuXuXiXvXuXsXfXoX#XG.) Y #.e O 3 , ; j $.X.a a S z c f q M j f p x F V 7 2 0 #   N.KXNX0XiXpXpXmXaXpXaXMXaX",
"sXnXtXiXiXnXnXiXuXiXrXuXuXrXiXuXnX5XH.@XV.V.H.F Q P O o N $.X.a a C C a z F Y O.O.X.W U G G h w > . } KXNXwXuXuXuXpXpXsXmXMXyXpX",
"tXiXaXnXiXiXtX0XiXuXuXiXuXaX0XuXiX*XI.:XC.B.8XK.F.w.f j -.$.T s S Z V S E @.@.+.W r.-.@.Y a Z C % h ).HXtXbXwXuXbXvXpXbXpXpXpXaX",
"0X0XiXtX0XsXuXbXiXuXuXuXtXnX0XuX>X.X2XJ.V.oX2XbXbXZ.>.+.O.O.X.A S S S +.r.@.#.D Z Y X.@.O.m S D s 3.+XpXiXcXuXuXuXuXmXuXuXuXaXpX",
"uXBXuXuXbXuXqXaXuXtXtXuXbXuXtXnXXX%XiXK.U.8X4X+X7X+X5.:.@.X.T U A D Y O.X.T Z C C V Z T X.D m p A C..X9XpXrXnXcX0XnXmXuXbXpXkXjX",
"wXcXuX0X7XuXbXuXeXiXiXnXuXtXiXiX+X4XnXL.J.7X9X=X=X2Xd.+.#.T A T D Z D d D C h v v b V F D V p S d.OX.X%XuXrXeXuXnXnXbXnXpXmXuXbX",
"wX0XiX0X7XiX0XeXuXiXsXnXuXwXcX0X*XqX3XoXP.qX9X@X@X@Xq.O.K D T G S v Z V G x V c b b v F G p s ] $XOX%X&X9X7XuXeXeXuXuXbXmXaXiXiX",
"0XuXtX0X0X0XtXtXeXuXuXtX9XtX9X4X+X@XoX9XiX6X@X+X-XXXq.W K A G V z z c z k c k f k k v V v Z T :.%X5X&XwXcX7XeXtX0XwX7XuXbXuXpXwX",
"7XuXeXtX7X6XwXyX7XwX0X7X9X9XwX5X2X#X@X9X$X#X=X+XoX+Xj.U D m c l k c c j q j g z h w w V V Z K Q P.4X&X0XuXwX7XuXtXrXwXuXpXpXuXbX",
"tXtX5XiXtXwXwXuX7X7XpXmX7X7XuXtX7X9X5X-X@X@X%X@XP.XXd.X.K m m i j j w f l w t w l j w b b s X.` oX;X4XtX8X7X7XcXrXwXuXuXpXuXuXuX",
"5XqX5X9X7X5X5X5X7XqX5X7X7XuXtX5X0X0XwX4XXX@X@XXX#X$XB.K D s V b j w w i q < M < f j b z p a d 5.XX%X2X5X0XqX7XeXvXeX8XuXwX7XbXwX",
"2X0XwXtX6X6X5X9XtX0X9X9XwX9X0X5X9X3X=X2X@X@X.XoXOX$XA.K L S G h l l j M = f j q y f x G Y Z d ,.2X%X2XwXwXuXtXdX1XuXcX0X7XbXwXwX",
"7X5X4X0X7XtXwXwX9XsXwX5X5X5X0X9X5X6XXX*X@X6X@XP.oX2Xq.X.L m x v b h h l q q j j f k V A U S d :.oXOX=X4X8XtX,Xn.6.*XNX6XwXwXpX0X",
"tXwX5XqXqXsXqXqXtXtX7X6X9XwX5X5X-X=X#X+XXX#X#X#XoX&Xj.o.J S m x v B k h j M j f z i B D D S L ,.L.oX4X4XBX,XM.$.d $XBX7X6X8XwX7X",
"9XqX5XqX5X5X7X3X9X5X4XqX9XuX9X6X3X%X$X$XXX+XP..XXXL.7.o.a U Z C V c l l c b f f b b m s G s K ] K..XuXwX0XY.c...' bXwXcX5XwXuX7X",
"3X7X2X5X0X5X5X0X5X7X2X5X5X5X9X5X*X.X+X@XOX#XoXK.F.f.=.=.Y G S S v z z b k k h c l c x U s s d ' L.K.qXcXL.0.8.-.k.mX5XtXuX7XuXbX",
"qXtX6X8X,XtXqX5X7XwX0X9XuX0X7X5X-X@X.XXX$XXXOXD.i.$.@.%.R C m A m k v V V h h f k a u u u a s ,.P.OX6XvXL.r.8.e.k.:XwX5X7X7X7XeX",
":X3X3X3X@X3X3XqX6X9X7X5X:X5X&X5X3X=X%X=X$X;XD.;.;.;.+.@.X.s I m n m b c C i H l f # 3.A.` u u 5.I.I.4XvXH.>.0.6.<.>XvX2XtXtXwX7X",
":X$X6X:X3X4X>X3X3X3X=X3X3X;X4XXXOX2X2X*X^.h.=.=.;.&.o.O.o.s S m i x v g z x b b $ 3.xXxXdXH.Q W P.%X%XvX).0.e.7.O.P.AXwX0XuX0X7X",
":X5X4X;X5X5X5X6X2X6X6X4X:X=X:X6X&X>X}.m.s.#.o.&.6.%.o.R T D a S m c k = c h $ + M |.|.E.Q.|.].l.J.XX%XcXH.g.b.9.9.oXcX5X6X7X0X7X",
"3X<X5X<X9XqX5X9X2X5X0X4X7X0X5X>X'.m.s.y.%.T @.<.%.o.+.+.X.F m S G c j c b H ) ` ).dXR.k.x.h.m.'.{.3X2XbXZ.g.E.T.9.[.vX4X5X8X8X5X",
"3X>X+X%X-X3X>X:XqX:X5X0X9X[.R.z.g.8.8.;.X.W @.@.R o.R o.Y U Z G m v h j $ 4.xXxXxX].'.k.f.f.h.m.Q.^.;XcXZ.e.~.~.*.H.AXiXuXwXuXsX",
"L.L.G.L.K.K.K.K.G.J.).{./.m.h.i.*.&.+.o.T R Q @.=.&.+.T T T A m B c p i m R. XW.m.'.T.S.k.l.h.k.A.Q.}.(.Z.Y.~.~.f.F.2X.X%X%XXXOX",
"6X3X8X:X,X[.>X{.`.(.^.^.W.T.p.%.&.=.R R Y o.o.&.5.=.>.O.L d p b i x z @ m i.p.i.7.b.v.l.h.k.j.9.p.z.'.E././.R.'.T.D.8XXX#X+XXX.X",
"$X3X-X(./.}.}.}.^.!.].].^.E.h.1.o.&.&.&.+.%.&.7.E ^ t e ) ) P n N e 9 t t P t ! 1.*.s.f.i.s.w.i.p.f.k.D.Q.}.Q.T.s.D.NXbXbXbXmXrX",
"qX>X).T.^./.Q.'.!.Q.}.].{.].}.T.a.p.i.7.%.1.e.c.I / [ y } [ { [ { y r ( / { [ N +.%.u.5.4.4.9.9.4.p.u.p.k.Q.W.l.=.<.6X7X4X0X2X2X",
"/.).E.W.!.Q.'.'.R.R.W.].].}.W.M.M.T.h.s.7.a.c.a.! w ' } e g n N N * t } ` P 6 g U <.<.,.9.7.u.p.4.*.2.u.a.h.m.k.o.W 3XvX5X0X6X&X",
"R.W.Q.Q.R.'.'.R.m.m.D.^.}.R.v.7.2.h.v.v.n.g.g.h.1.#.c.M.R.v.i.o.s u g. Xi.L U a m %.,.1.a.7.i.g.u.2.~ <.2.1.i.i.T E 7XeX6X0X6X2X",
"W.Q.E.W.R.R.z.m.x.x.R.Q.T.T.s.*.&.&.&.1.<.9.a.s.g.@.#.M. X|. Xv.s X.v.7.%.R U L I J Y 1.*.9.9.9.g.u.&.o.+.,.*.%.s ] {.`.(.>X>X-X",
"Q.W.E.W.R.S.x.h.f.x.m.m.m.h.i.*.<.X.Z S T O.+.&.6.-.D =.;.2.'.|.].9.o.O.&.Q Y E R U S %.2.2.2.f.g.p.y.%.E o.%.o.p 2.|.^.Q.^./.^.",
"W.R.W.R.z.x.l.h.s.h.k.k.h.p.9.2.&.@.W E X.T Y W X.O.Y s o.-.a.~.xX].R d D Q R Q ] +.+.%.4.7.u.4.u.p.p.2.%.R +.+.s f.]./.].Q.}.Q."
};
